<svg width="11" height="16" viewBox="0 0 11 16" fill="none" xmlns="http://www.w3.org/2000/svg">
<path d="M1 3.268V2C1 1.46957 1.21071 0.960859 1.58579 0.585786C1.96086 0.210714 2.46957 0 3 0H7C7.53043 0 8.03914 0.210714 8.41421 0.585786C8.78929 0.960859 9 1.46957 9 2V3.268C9.30403 3.44353 9.5565 3.696 9.73204 4.00003C9.90757 4.30406 9.99999 4.64894 10 5V6C10.2652 6 10.5196 6.10536 10.7071 6.29289C10.8946 6.48043 11 6.73478 11 7V8C11 8.26522 10.8946 8.51957 10.7071 8.70711C10.5196 8.89464 10.2652 9 10 9V11C9.99999 11.3511 9.90757 11.6959 9.73204 12C9.5565 12.304 9.30403 12.5565 9 12.732V14C9 14.5304 8.78929 15.0391 8.41421 15.4142C8.03914 15.7893 7.53043 16 7 16H3C2.46957 16 1.96086 15.7893 1.58579 15.4142C1.21071 15.0391 1 14.5304 1 14V12.732C0.695969 12.5565 0.443498 12.304 0.267962 12C0.0924258 11.6959 8.91844e-06 11.3511 0 11V5C8.91844e-06 4.64894 0.0924258 4.30406 0.267962 4.00003C0.443498 3.696 0.695969 3.44353 1 3.268ZM3 1C2.73478 1 2.48043 1.10536 2.29289 1.29289C2.10536 1.48043 2 1.73478 2 2V3H8V2C8 1.73478 7.89464 1.48043 7.70711 1.29289C7.51957 1.10536 7.26522 1 7 1H3ZM9 11V5C9 4.73478 8.89464 4.48043 8.70711 4.29289C8.51957 4.10536 8.26522 4 8 4H2C1.73478 4 1.48043 4.10536 1.29289 4.29289C1.10536 4.48043 1 4.73478 1 5V11C1 11.265 1.10522 11.5192 1.29254 11.7068C1.47986 11.8943 1.73396 11.9997 1.999 12H8C8.26522 12 8.51957 11.8946 8.70711 11.7071C8.89464 11.5196 9 11.2652 9 11ZM2 14C2 14.2652 2.10536 14.5196 2.29289 14.7071C2.48043 14.8946 2.73478 15 3 15H7C7.26522 15 7.51957 14.8946 7.70711 14.7071C7.89464 14.5196 8 14.2652 8 14V13H2V14Z" fill="black"/>
</svg>
