<svg width="28" height="28" viewBox="0 0 28 28" fill="none" xmlns="http://www.w3.org/2000/svg">
<circle cx="14" cy="14" r="13.5" fill="#E7906B" fill-opacity="0.17" stroke="#E7906B"/>
<path d="M13.5 6C14.362 6 15.1886 6.34241 15.7981 6.9519C16.4076 7.5614 16.75 8.38805 16.75 9.25C16.75 10.112 16.4076 10.9386 15.7981 11.5481C15.1886 12.1576 14.362 12.5 13.5 12.5C12.638 12.5 11.8114 12.1576 11.2019 11.5481C10.5924 10.9386 10.25 10.112 10.25 9.25C10.25 8.38805 10.5924 7.5614 11.2019 6.9519C11.8114 6.34241 12.638 6 13.5 6ZM13.5 7.625C13.069 7.625 12.6557 7.7962 12.351 8.10095C12.0462 8.4057 11.875 8.81902 11.875 9.25C11.875 9.68098 12.0462 10.0943 12.351 10.399C12.6557 10.7038 13.069 10.875 13.5 10.875C13.931 10.875 14.3443 10.7038 14.649 10.399C14.9538 10.0943 15.125 9.68098 15.125 9.25C15.125 8.81902 14.9538 8.4057 14.649 8.10095C14.3443 7.7962 13.931 7.625 13.5 7.625ZM13.5 13.3125C15.6694 13.3125 20 14.3931 20 16.5625V19H7V16.5625C7 14.3931 11.3306 13.3125 13.5 13.3125ZM13.5 14.8562C11.0869 14.8562 8.54375 16.0425 8.54375 16.5625V17.4563H18.4563V16.5625C18.4563 16.0425 15.9131 14.8562 13.5 14.8562Z" fill="#E7906B"/>
</svg>
