<svg width="27" height="21" viewBox="0 0 27 21" fill="none" xmlns="http://www.w3.org/2000/svg">
<path d="M17.6429 0H1.35714C0.997206 0 0.652012 0.1475 0.397498 0.41005C0.142984 0.672601 0 1.0287 0 1.4V12.6C0 12.9713 0.142984 13.3274 0.397498 13.5899C0.652012 13.8525 0.997206 14 1.35714 14H17.6429C18.0028 14 18.348 13.8525 18.6025 13.5899C18.857 13.3274 19 12.9713 19 12.6V1.4C19 1.0287 18.857 0.672601 18.6025 0.41005C18.348 0.1475 18.0028 0 17.6429 0ZM10.1786 11.2H8.82143C8.64146 11.2 8.46886 11.1263 8.34161 10.995C8.21435 10.8637 8.14286 10.6857 8.14286 10.5C8.14286 10.3143 8.21435 10.1363 8.34161 10.005C8.46886 9.87375 8.64146 9.8 8.82143 9.8H10.1786C10.3585 9.8 10.5311 9.87375 10.6584 10.005C10.7857 10.1363 10.8571 10.3143 10.8571 10.5C10.8571 10.6857 10.7857 10.8637 10.6584 10.995C10.5311 11.1263 10.3585 11.2 10.1786 11.2ZM15.6071 11.2H12.8929C12.7129 11.2 12.5403 11.1263 12.413 10.995C12.2858 10.8637 12.2143 10.6857 12.2143 10.5C12.2143 10.3143 12.2858 10.1363 12.413 10.005C12.5403 9.87375 12.7129 9.8 12.8929 9.8H15.6071C15.7871 9.8 15.9597 9.87375 16.087 10.005C16.2142 10.1363 16.2857 10.3143 16.2857 10.5C16.2857 10.6857 16.2142 10.8637 16.087 10.995C15.9597 11.1263 15.7871 11.2 15.6071 11.2ZM1.35714 3.5V1.4H17.6429V3.5H1.35714Z" fill="#FF800F"/>
<path d="M20.5 8C19.2144 8 17.9577 8.38122 16.8888 9.09545C15.8199 9.80968 14.9868 10.8248 14.4948 12.0126C14.0028 13.2003 13.8741 14.5072 14.1249 15.7681C14.3757 17.029 14.9948 18.1872 15.9038 19.0962C16.8128 20.0052 17.971 20.6243 19.2319 20.8751C20.4928 21.1259 21.7997 20.9972 22.9874 20.5052C24.1752 20.0132 25.1903 19.1801 25.9046 18.1112C26.6188 17.0423 27 15.7856 27 14.5C26.9982 12.7767 26.3128 11.1244 25.0942 9.90582C23.8756 8.68722 22.2233 8.00182 20.5 8ZM24 15H20.5C20.3674 15 20.2402 14.9473 20.1464 14.8536C20.0527 14.7598 20 14.6326 20 14.5V11C20 10.8674 20.0527 10.7402 20.1464 10.6464C20.2402 10.5527 20.3674 10.5 20.5 10.5C20.6326 10.5 20.7598 10.5527 20.8536 10.6464C20.9473 10.7402 21 10.8674 21 11V14H24C24.1326 14 24.2598 14.0527 24.3536 14.1464C24.4473 14.2402 24.5 14.3674 24.5 14.5C24.5 14.6326 24.4473 14.7598 24.3536 14.8536C24.2598 14.9473 24.1326 15 24 15Z" fill="#FF800F"/>
</svg>
