<svg width="28" height="28" viewBox="0 0 28 28" fill="none" xmlns="http://www.w3.org/2000/svg">
<circle cx="14" cy="14" r="13.5" fill="#E7906B" fill-opacity="0.17" stroke="#E7906B"/>
<path d="M18.2 19.2C18.5713 19.2 18.9274 19.3475 19.1899 19.6101C19.4525 19.8726 19.6 20.2287 19.6 20.6C19.6 20.9713 19.4525 21.3274 19.1899 21.5899C18.9274 21.8525 18.5713 22 18.2 22C17.8287 22 17.4726 21.8525 17.2101 21.5899C16.9475 21.3274 16.8 20.9713 16.8 20.6C16.8 19.823 17.423 19.2 18.2 19.2ZM7 8H9.289L9.947 9.4H20.3C20.4857 9.4 20.6637 9.47375 20.795 9.60503C20.9263 9.7363 21 9.91435 21 10.1C21 10.219 20.965 10.338 20.916 10.45L18.41 14.979C18.172 15.406 17.71 15.7 17.185 15.7H11.97L11.34 16.841L11.319 16.925C11.319 16.9714 11.3374 17.0159 11.3703 17.0487C11.4031 17.0816 11.4476 17.1 11.494 17.1H19.6V18.5H11.2C10.8287 18.5 10.4726 18.3525 10.2101 18.0899C9.9475 17.8274 9.8 17.4713 9.8 17.1C9.8 16.855 9.863 16.624 9.968 16.428L10.92 14.713L8.4 9.4H7V8ZM11.2 19.2C11.5713 19.2 11.9274 19.3475 12.1899 19.6101C12.4525 19.8726 12.6 20.2287 12.6 20.6C12.6 20.9713 12.4525 21.3274 12.1899 21.5899C11.9274 21.8525 11.5713 22 11.2 22C10.8287 22 10.4726 21.8525 10.2101 21.5899C9.9475 21.3274 9.8 20.9713 9.8 20.6C9.8 19.823 10.423 19.2 11.2 19.2ZM17.5 14.3L19.446 10.8H10.598L12.25 14.3H17.5Z" fill="#E7906B"/>
</svg>
