<svg width="17" height="17" viewBox="0 0 17 17" fill="none" xmlns="http://www.w3.org/2000/svg">
<path d="M8.50267 2.02427e-07C7.03503 -0.000320026 5.5923 0.379303 4.31492 1.10192C3.03754 1.82453 1.96902 2.86552 1.21336 4.12356C0.457709 5.3816 0.0406663 6.81383 0.00282648 8.28085C-0.0350133 9.74786 0.307639 11.1997 0.997432 12.495L0.0696985 15.2779C-0.00714831 15.5083 -0.0183006 15.7556 0.0374917 15.992C0.0932841 16.2284 0.213816 16.4446 0.385579 16.6163C0.557341 16.7881 0.773545 16.9086 1.00996 16.9644C1.24637 17.0202 1.49366 17.009 1.72409 16.9322L4.50729 16.0045C5.64735 16.6108 6.91058 16.9495 8.20108 16.9948C9.49158 17.04 10.7754 16.7908 11.9552 16.2658C13.135 15.7409 14.1796 14.9541 15.0099 13.9652C15.8402 12.9763 16.4342 11.8113 16.7469 10.5586C17.0597 9.30585 17.0829 7.99834 16.8148 6.7353C16.5467 5.47226 15.9944 4.28689 15.1997 3.26916C14.4051 2.25143 13.389 1.4281 12.2286 0.86165C11.0682 0.295202 9.79397 0.000529804 8.50267 2.02427e-07ZM4.90617 9.48077C4.71218 9.48077 4.52254 9.42325 4.36123 9.31548C4.19993 9.20771 4.07421 9.05454 3.99997 8.87532C3.92573 8.69611 3.90631 8.49891 3.94416 8.30866C3.982 8.11841 4.07542 7.94365 4.2126 7.80649C4.34977 7.66933 4.52455 7.57592 4.71482 7.53808C4.90508 7.50023 5.1023 7.51966 5.28153 7.59389C5.46076 7.66812 5.61395 7.79383 5.72173 7.95511C5.82951 8.1164 5.88704 8.30602 5.88704 8.5C5.88704 8.76012 5.78369 9.00958 5.59975 9.19351C5.4158 9.37744 5.16631 9.48077 4.90617 9.48077ZM8.50267 9.48077C8.30867 9.48077 8.11903 9.42325 7.95773 9.31548C7.79643 9.20771 7.67071 9.05454 7.59647 8.87532C7.52223 8.69611 7.50281 8.49891 7.54065 8.30866C7.5785 8.11841 7.67192 7.94365 7.8091 7.80649C7.94627 7.66933 8.12105 7.57592 8.31131 7.53808C8.50158 7.50023 8.6988 7.51966 8.87803 7.59389C9.05726 7.66812 9.21045 7.79383 9.31823 7.95511C9.42601 8.1164 9.48353 8.30602 9.48353 8.5C9.48353 8.76012 9.38019 9.00958 9.19625 9.19351C9.0123 9.37744 8.76281 9.48077 8.50267 9.48077ZM12.0992 9.48077C11.9052 9.48077 11.7155 9.42325 11.5542 9.31548C11.3929 9.20771 11.2672 9.05454 11.193 8.87532C11.1187 8.69611 11.0993 8.49891 11.1372 8.30866C11.175 8.11841 11.2684 7.94365 11.4056 7.80649C11.5428 7.66933 11.7175 7.57592 11.9078 7.53808C12.0981 7.50023 12.2953 7.51966 12.4745 7.59389C12.6538 7.66812 12.8069 7.79383 12.9147 7.95511C13.0225 8.1164 13.08 8.30602 13.08 8.5C13.08 8.76012 12.9767 9.00958 12.7927 9.19351C12.6088 9.37744 12.3593 9.48077 12.0992 9.48077Z" fill="#FF800F"/>
</svg>
