<svg width="30" height="25" viewBox="0 0 30 25" fill="none" xmlns="http://www.w3.org/2000/svg">
<g filter="url(#filter0_d_5889_31339)">
<path fill-rule="evenodd" clip-rule="evenodd" d="M22.8243 18.1416L6.74681 18.5913C6.13766 18.6083 5.5467 18.3827 5.10392 17.964C4.66114 17.5453 4.40282 16.9679 4.38578 16.3587L4.28943 12.9136C4.89857 12.8965 5.476 12.6382 5.89468 12.1954C6.31337 11.7527 6.53901 11.1617 6.52197 10.5525C6.50494 9.9434 6.24662 9.36597 5.80384 8.94728C5.36106 8.5286 4.7701 8.30296 4.16095 8.31999L4.0646 4.87481C4.04756 4.26567 4.2732 3.6747 4.69189 3.23193C5.11057 2.78915 5.688 2.53083 6.29714 2.51379L22.3746 2.06413C22.9838 2.04709 23.5748 2.27274 24.0175 2.69142C24.4603 3.1101 24.7186 3.68753 24.7357 4.29668L24.832 7.74186C24.2229 7.75889 23.6455 8.01722 23.2268 8.45999C22.8081 8.90277 22.5824 9.49373 22.5995 10.1029C22.6165 10.712 22.8748 11.2895 23.3176 11.7081C23.7604 12.1268 24.3514 12.3525 24.9605 12.3354L25.0569 15.7806C25.0739 16.3898 24.8483 16.9807 24.4296 17.4235C24.0109 17.8663 23.4335 18.1246 22.8243 18.1416ZM9.67653 16.8075C9.98246 16.7989 10.2235 16.544 10.215 16.2381L10.1486 13.8651C10.1401 13.5592 9.88511 13.3181 9.57918 13.3267C9.27325 13.3353 9.03217 13.5902 9.04073 13.8961L9.1071 16.269C9.11565 16.575 9.3706 16.816 9.67653 16.8075ZM10.0861 11.6226C10.0946 11.9285 9.85356 12.1834 9.54762 12.192C9.24169 12.2006 8.98675 11.9595 8.97819 11.6536L8.91182 9.28065C8.90327 8.97472 9.14434 8.71978 9.45027 8.71122C9.7562 8.70266 10.0111 8.94373 10.0197 9.24967L10.0861 11.6226ZM9.41872 7.57702C9.72465 7.56846 9.96572 7.31352 9.95716 7.00758L9.8908 4.63468C9.88224 4.32874 9.6273 4.08767 9.32136 4.09623C9.01543 4.10479 8.77436 4.35973 8.78292 4.66566L8.84928 7.03857C8.85784 7.3445 9.11278 7.58557 9.41872 7.57702Z" fill="#FF800F"/>
</g>
<defs>
<filter id="filter0_d_5889_31339" x="0.0625" y="0.0632324" width="28.9961" height="24.5291" filterUnits="userSpaceOnUse" color-interpolation-filters="sRGB">
<feFlood flood-opacity="0" result="BackgroundImageFix"/>
<feColorMatrix in="SourceAlpha" type="matrix" values="0 0 0 0 0 0 0 0 0 0 0 0 0 0 0 0 0 0 127 0" result="hardAlpha"/>
<feOffset dy="2"/>
<feGaussianBlur stdDeviation="2"/>
<feComposite in2="hardAlpha" operator="out"/>
<feColorMatrix type="matrix" values="0 0 0 0 0 0 0 0 0 0 0 0 0 0 0 0 0 0 0.12 0"/>
<feBlend mode="normal" in2="BackgroundImageFix" result="effect1_dropShadow_5889_31339"/>
<feBlend mode="normal" in="SourceGraphic" in2="effect1_dropShadow_5889_31339" result="shape"/>
</filter>
</defs>
</svg>
