<svg width="19" height="20" viewBox="0 0 19 20" fill="none" xmlns="http://www.w3.org/2000/svg">
<g clip-path="url(#clip0_6386_23661)">
<path d="M2.26193 3.15039H16.4798C17.3721 3.15039 18.0954 3.95797 18.0954 4.95416L18.7417 18.6628C18.7417 19.659 18.0183 20.4666 17.126 20.4666H1.61566C0.723357 20.4666 0 19.659 0 18.6628L0.646265 4.95416C0.646265 3.95797 1.36962 3.15039 2.26193 3.15039Z" fill="#E7906B"/>
<path d="M3.35742 5.72913V2.38086C3.35742 1.06595 5.18517 -2.98023e-07 7.43981 0H11.1547C13.4093 0 15.2371 1.06595 15.2371 2.38086V5.72913" stroke="white" stroke-width="2" stroke-linecap="round"/>
<path d="M3.35742 2.83437V2.38086C3.35742 1.06595 5.18517 -2.98023e-07 7.43981 0H11.1547C13.4093 0 15.2371 1.06595 15.2371 2.38086V2.83437" stroke="#E7906B" stroke-width="2" stroke-linecap="round"/>
</g>
<defs>
<clipPath id="clip0_6386_23661">
<rect width="19" height="20" fill="white"/>
</clipPath>
</defs>
</svg>
