<svg width="18" height="15" viewBox="0 0 18 15" fill="none" xmlns="http://www.w3.org/2000/svg">
<path d="M7.00038 9.60049L11.0004 5.77696M7.00038 5.77696H7.00918M10.9916 9.60049H11.0004M1.37151 5.65766C1.17311 5.65766 0.991507 5.50319 1.00031 5.30207C1.05391 4.1229 1.20431 3.35513 1.62431 2.74796C1.86389 2.40195 2.16433 2.09821 2.51232 1.85019C3.44434 1.18872 4.76035 1.18872 7.39398 1.18872H10.6052C13.2388 1.18872 14.5549 1.18872 15.4885 1.85019C15.8333 2.0949 16.1341 2.39849 16.3757 2.74796C16.7957 3.35513 16.9461 4.1229 16.9997 5.30207C17.0085 5.50319 16.8269 5.65766 16.6277 5.65766C15.5189 5.65766 14.6197 6.5669 14.6197 7.68872C14.6197 8.81054 15.5189 9.71978 16.6277 9.71978C16.8269 9.71978 17.0085 9.87425 16.9997 10.0761C16.9461 11.2545 16.7957 12.0223 16.3757 12.6303C16.136 12.976 15.8356 13.2795 15.4877 13.5273C14.5549 14.1887 13.2388 14.1887 10.6052 14.1887H7.39478C4.76115 14.1887 3.44514 14.1887 2.51152 13.5273C2.16381 13.2792 1.86365 12.9754 1.62431 12.6295C1.20431 12.0223 1.05391 11.2545 1.00031 10.0754C0.991507 9.87425 1.17311 9.71978 1.37151 9.71978C2.48032 9.71978 3.37953 8.81054 3.37953 7.68872C3.37953 6.5669 2.48032 5.65766 1.37151 5.65766Z" stroke="black" stroke-width="1.5" stroke-linecap="round" stroke-linejoin="round"/>
</svg>
