<svg width="165" height="167" viewBox="0 0 165 167" fill="none" xmlns="http://www.w3.org/2000/svg">
<g clip-path="url(#clip0_7792_14707)">
<path d="M58.6145 133.699C59.2427 134.107 59.3957 134.358 59.6688 134.467C79.2699 137.607 97.4428 133.938 113.39 121.813C117.424 118.761 120.585 114.728 122.833 110.047C127.738 100.055 125.653 88.5495 117.622 80.9198C113.459 76.9195 108.778 73.8218 102.901 73.0048C100.876 74.8285 98.9216 76.7122 96.8743 78.2737C93.5222 80.8052 89.7272 81.9883 85.4945 81.0966C82.3433 80.5083 80.2127 78.7104 80.0371 76.6131C79.8066 73.8603 81.4878 71.8681 83.7921 71.0106C86.9918 69.8125 90.3555 68.9963 93.6701 68.3824C95.8161 68.0006 98.1371 68.1319 100.316 68.1434C105.894 59.0843 101.177 49.2565 89.2645 44.9297C88.0197 45.8284 86.7149 46.7983 85.3991 47.6371C80.4362 50.6365 75.1066 51.621 69.5846 49.5195C67.4708 48.7103 65.5152 47.4255 65.3558 44.7327C65.2512 42.6953 66.9324 40.7031 69.7499 39.6696C74.2383 38.0971 78.8693 38.2286 83.4733 38.8245C85.0789 39.0831 86.6846 39.3417 88.2302 39.6714C97.3174 26.021 93.6129 7.78916 78.4731 3.54072C79.3246 2.67566 79.9141 1.83304 80.5584 1.64585C81.3338 1.44742 82.3552 1.82204 83.1144 2.2191C90.1117 6.17466 95.1217 11.6206 96.0152 19.9275C96.7331 26.1371 95.7143 32.0993 93.4339 37.9716C93.1066 38.7917 92.7793 39.6119 92.5229 40.492C92.4629 40.5631 92.5449 40.7541 92.6488 41.2073C93.348 41.6755 94.1292 42.3347 95.0305 42.8517C105.808 49.388 108.618 56.1446 105.515 68.7543C106.608 69.1889 107.842 69.7432 109.066 70.1666C116.095 72.9312 121.684 77.4034 125.662 83.9279C132.159 94.5274 131.438 107.197 123.791 117.556C119.643 123.192 114.397 127.536 108.276 130.898C93.4419 138.968 77.7862 141.959 61.0575 138.44C60.1891 138.317 59.3098 138.062 58.4414 137.938C58.3104 137.95 58.1193 138.032 57.546 138.279C59.4802 140.886 61.933 142.59 64.3256 144.366C66.5872 146.152 69.0399 147.857 71.5746 149.752C69.8005 151.422 68.2058 151.295 66.6382 150.703C64.8576 149.931 62.9569 149.302 61.4765 148.174C57.5214 145.08 53.5554 141.855 49.8295 138.346C46.9558 135.555 47.4846 133.2 50.9355 131.848C58.2904 129.04 65.7164 126.292 73.1423 123.543C74.36 123.109 75.5996 122.937 77.2214 122.6C77.2498 125.304 75.7209 125.963 74.3232 126.611C69.0923 128.775 64.0745 131.119 58.6145 133.699ZM69.2876 44.396C74.7283 47.8908 80.4239 47.337 84.3597 43.1053C79.2915 42.4832 74.5456 41.7674 69.2876 44.396ZM83.9851 75.6809C89.0158 78.2206 93.406 77.0525 96.6425 72.3526C92.0225 72.3522 87.8776 72.5091 83.9851 75.6809Z" fill="#E7906B"/>
</g>
<defs>
<clipPath id="clip0_7792_14707">
<rect width="108.263" height="126.307" fill="white" transform="translate(81.4609) rotate(40.1597)"/>
</clipPath>
</defs>
</svg>
