<svg width="11" height="11" viewBox="0 0 11 11" fill="none" xmlns="http://www.w3.org/2000/svg">
<path d="M9.64082 0.000458874C9.28916 0.000458874 8.94484 0.136754 8.67949 0.402002L4.13178 4.93371L4.03124 5.03421L4.00277 5.17785L3.68692 6.78402L3.54369 7.4577L4.21809 7.31452L5.82489 6.99879L5.96812 6.97034L6.06866 6.86984L10.6021 2.3239C10.7921 2.13349 10.9215 1.8911 10.9739 1.6273C11.0263 1.3635 10.9994 1.0901 10.8966 0.841562C10.7938 0.593024 10.6197 0.380475 10.3962 0.23071C10.1727 0.0809445 9.90987 0.00112701 9.64082 0.000458874ZM9.64082 0.88982C9.74824 0.88982 9.85429 0.944889 9.95667 1.04723C10.161 1.2519 10.161 1.47401 9.95667 1.67822L5.50904 6.12457L4.71987 6.28244L4.87779 5.49358L9.32542 1.04768C9.42734 0.945807 9.53339 0.88982 9.64082 0.88982ZM0 1.82186V11H9.18173V4.94793L8.26356 5.86575V10.0822H0.918173V2.73967H5.13626L6.05443 1.82186H0Z" fill="white"/>
</svg>
