<svg width="58" height="51" viewBox="0 0 58 51" fill="none" xmlns="http://www.w3.org/2000/svg">
<path d="M4.83333 51C3.54444 51 2.41667 50.575 1.45 49.725C0.483333 48.875 0 47.8833 0 46.75V4.25C0 3.11667 0.483333 2.125 1.45 1.275C2.41667 0.425 3.54444 0 4.83333 0H53.1667C54.4556 0 55.5833 0.425 56.55 1.275C57.5167 2.125 58 3.11667 58 4.25V46.75C58 47.8833 57.5167 48.875 56.55 49.725C55.5833 50.575 54.4556 51 53.1667 51H4.83333ZM9.34444 39.8792H48.7361L36.8944 25.9958L26.2611 38.1083L18.7694 29.1125L9.34444 39.8792Z" fill="#878787" fill-opacity="0.68"/>
</svg>
