<svg width="32" height="37" viewBox="0 0 32 37" fill="none" xmlns="http://www.w3.org/2000/svg">
<path d="M15.7341 0C14.4931 0.0244292 13.602 0.260578 13.0106 0.684017L4.90682 4.92655L0.401003 10.919C-0.548466 12.3522 0.126157 15.1208 3.09117 13.3457L6.33935 9.16013C10.462 5.68386 18.874 7.27908 14.8846 14.2577C12.9273 18.2966 13.8435 20.2673 16.3671 21.0979L17.5164 17.3195C19.507 12.9385 23.2216 12.1486 23.0717 8.61454L32 9.24156L31.9167 0.114003L15.7341 0ZM11.2283 8.41911C9.77909 8.39468 8.35489 8.98098 7.32213 9.82786L4.06562 14.0134C4.95679 14.7056 5.85629 14.331 6.74745 13.4922C7.79687 14.0134 8.61308 13.2072 9.27937 11.5949C9.55422 10.4956 9.96232 9.722 11.2283 8.41911ZM4.59866 16.2364C4.56534 16.2364 4.5237 16.2364 4.49038 16.2446C4.21554 16.3016 3.89072 16.5866 3.67417 17.238C3.4493 17.8895 3.39933 18.8178 3.59921 19.8112C3.7991 20.7966 4.21554 21.6353 4.68194 22.1565C5.13169 22.6695 5.54812 22.816 5.82297 22.759C6.10614 22.7102 6.42264 22.417 6.63918 21.7737C6.86405 21.1223 6.92236 20.1858 6.72247 19.2005C6.51425 18.2071 6.09782 17.3683 5.63974 16.8553C5.23996 16.3993 4.8735 16.2364 4.59866 16.2364ZM11.4781 24.9332C10.8202 24.9414 9.99564 25.145 9.18776 25.5277C8.26327 25.9755 7.53868 26.5944 7.14723 27.1644C6.75578 27.7263 6.72247 28.1497 6.8474 28.4022C6.97233 28.6465 7.33879 28.8826 8.0384 28.9152C8.73801 28.9559 9.67915 28.7686 10.6036 28.3207C11.5281 27.8729 12.2527 27.2621 12.6442 26.6921C13.0356 26.1303 13.0689 25.6987 12.944 25.4544C12.8191 25.202 12.4526 24.9739 11.753 24.9414C11.6614 24.9332 11.5781 24.9332 11.4781 24.9332ZM3.34935 32.718C2.95791 32.7261 2.59977 32.7831 2.28328 32.8727C1.57535 33.0763 1.16724 33.4427 1.03398 33.8743C0.892395 34.314 1.03398 34.8352 1.50872 35.3971C1.99178 35.9508 2.79966 36.4801 3.7991 36.7732C4.79022 37.0664 5.75634 37.0582 6.47261 36.8465C7.18887 36.643 7.59698 36.2765 7.73024 35.8449C7.8635 35.4052 7.73024 34.884 7.24717 34.3222C6.77244 33.7685 5.96456 33.2392 4.96512 32.946C4.39877 32.7831 3.84907 32.7099 3.34935 32.718Z" fill="#E7906B"/>
</svg>
