<svg width="17" height="14" viewBox="0 0 17 14" fill="none" xmlns="http://www.w3.org/2000/svg">
<g clip-path="url(#clip0_5382_17112)">
<path d="M5.23572 7.00286V9.31386M6.63822 8.15886H3.83322M6.1513 4.52686H5.03901C4.1426 4.52702 3.27774 4.79937 2.6099 5.2918C1.94205 5.78422 1.51813 6.46214 1.41922 7.19586L0.918938 10.9059C0.84791 11.4381 1.00634 11.974 1.36651 12.4199C1.72669 12.8657 2.2657 13.1931 2.8893 13.3447C3.51289 13.4964 4.18139 13.4628 4.7779 13.2496C5.37441 13.0365 5.86097 12.6575 6.15251 12.1789L6.58965 11.4589H10.1973L10.6344 12.1789C10.926 12.6577 11.4126 13.0368 12.0093 13.2499C12.606 13.4631 13.2747 13.4967 13.8984 13.3449C14.5221 13.193 15.0611 12.8655 15.4212 12.4194C15.7813 11.9733 15.9394 11.4372 15.868 10.9049L15.3677 7.19486" stroke="black" stroke-linecap="round" stroke-linejoin="round"/>
<path d="M10.496 8.73586C10.496 8.67009 10.5278 8.60701 10.5842 8.5605C10.6407 8.51399 10.7173 8.48786 10.7972 8.48786C10.877 8.48786 10.9536 8.51399 11.0101 8.5605C11.0666 8.60701 11.0983 8.67009 11.0983 8.73586C11.1009 8.76969 11.0951 8.80359 11.0812 8.83549C11.0672 8.86738 11.0455 8.89659 11.0174 8.92131C10.9892 8.94602 10.9552 8.96572 10.9174 8.97919C10.8797 8.99265 10.8389 8.9996 10.7978 8.9996C10.7566 8.9996 10.7159 8.99265 10.6781 8.97919C10.6404 8.96572 10.6063 8.94602 10.5782 8.92131C10.55 8.89659 10.5283 8.86738 10.5144 8.83549C10.5005 8.80359 10.4946 8.76969 10.4972 8.73586M8.71224 3.99386C8.28602 3.93186 8.28602 3.42886 8.71224 3.36786C9.46664 3.25919 10.1648 2.96823 10.7179 2.53198C11.271 2.09572 11.654 1.53387 11.8184 0.91786L11.8439 0.81986C11.9362 0.47286 12.536 0.46986 12.632 0.81686L12.6635 0.92986C12.8331 1.54349 13.2193 2.10209 13.7736 2.53537C14.3278 2.96865 15.0252 3.25726 15.7782 3.36486C16.2068 3.42586 16.2068 3.93286 15.7782 3.99486C15.0255 4.10264 14.3283 4.39133 13.7743 4.82459C13.2203 5.25786 12.8343 5.81637 12.6647 6.42986L12.6332 6.54186C12.5372 6.88786 11.9374 6.88586 11.8451 6.53886L11.8208 6.44286C11.6563 5.82658 11.2729 5.26453 10.7193 4.82825C10.1657 4.39197 9.46708 4.10217 8.71224 3.99386Z" stroke="black" stroke-linecap="round" stroke-linejoin="round"/>
</g>
<defs>
<clipPath id="clip0_5382_17112">
<rect width="17" height="14" fill="white"/>
</clipPath>
</defs>
</svg>
