<svg width="297" height="305" viewBox="0 0 297 305" fill="none" xmlns="http://www.w3.org/2000/svg">
<g clip-path="url(#clip0_5789_22064)">
<path d="M239.091 48.9934L236.445 48.877C236.603 45.2574 238.188 13.3453 245.153 7.52388C245.595 7.12747 246.117 6.83044 246.683 6.65268C247.249 6.47492 247.846 6.42052 248.435 6.49313C252.582 7.07232 257.109 13.6707 262.278 26.6655C265.958 35.9176 268.611 45.1428 268.637 45.235L266.092 45.9687C266.066 45.8777 263.444 36.764 259.812 27.6339C253.398 11.5136 249.464 9.32041 248.07 9.12598C247.846 9.10167 247.62 9.12868 247.408 9.20496C247.197 9.28124 247.005 9.40481 246.848 9.56633C241.708 13.8614 239.506 39.483 239.091 48.9934Z" fill="black"/>
<path d="M215.715 31.7745L213.066 98.4307L300.464 88.9837L289.66 24.6287L215.715 31.7745Z" fill="#F0F0F0"/>
<path d="M289.66 24.6287L283.231 25.2498L291.788 81.6826L213.373 90.7369L213.066 98.4307L300.464 88.9837L289.66 24.6287Z" fill="#343434"/>
<path d="M336.877 139.247L333.243 138.842C333.274 138.555 336.293 110.04 326.504 99.3776C325.354 98.0805 323.926 97.0616 322.328 96.3971C320.729 95.7326 319.001 95.4399 317.274 95.5409C295.953 96.1492 285.928 132.867 285.83 133.238L282.297 132.29C284.266 125.433 287.001 118.822 290.45 112.581C297.878 99.3202 307.118 92.159 317.17 91.8724C319.421 91.7567 321.669 92.1474 323.749 93.0162C325.83 93.8849 327.691 95.2096 329.196 96.8933C340.109 108.786 337.015 138.009 336.877 139.247Z" fill="#FFBA49"/>
<path d="M272.02 113.096L349.169 122.278L347.972 245.043L244.988 232.735L272.02 113.096Z" fill="#FF800F"/>
<path d="M349.169 122.278L341.528 121.368L337.807 234.959L246.439 226.314L244.988 232.735L347.972 245.043L349.169 122.278Z" fill="#01200F"/>
<path d="M257.016 211.223C260.529 211.961 263.876 209.143 264.492 204.922C265.148 206.044 265.803 207.168 266.458 208.293C265.844 212.513 262.494 215.333 258.984 214.594C258.329 213.469 257.673 212.345 257.016 211.223Z" fill="#FFBA49"/>
<path d="M153.258 301.51C156.771 302.249 160.118 299.429 160.735 295.209C161.39 296.332 162.045 297.455 162.7 298.58C162.086 302.8 158.736 305.621 155.226 304.882C154.571 303.757 153.915 302.633 153.258 301.51Z" fill="#9B9B9B"/>
<path d="M264.864 140.571C266.337 144.471 270.162 146.204 273.412 144.434C273.01 145.719 272.607 147.004 272.203 148.289C268.953 150.056 265.128 148.325 263.656 144.423C264.061 143.14 264.464 141.856 264.864 140.571Z" fill="#FF5C00"/>
<path d="M242.13 112.864C242.723 108.638 240.354 104.637 236.836 103.925C237.766 103.129 238.697 102.333 239.629 101.537C243.144 102.249 245.515 106.252 244.923 110.476C243.993 111.272 243.062 112.068 242.13 112.864Z" fill="#021193"/>
<path d="M30.9973 95.8104C31.5903 91.5847 29.2209 87.5835 25.7031 86.8717C26.6333 86.0754 27.5644 85.2794 28.4965 84.4836C32.0115 85.1953 34.3822 89.198 33.7906 93.4222C32.8604 94.2184 31.9293 95.0145 30.9973 95.8104Z" fill="#FF5C00"/>
<path d="M102.942 245.539C103.536 241.313 101.166 237.312 97.6484 236.6C98.5786 235.804 99.5097 235.008 100.442 234.212C103.957 234.924 106.327 238.926 105.736 243.151C104.806 243.947 103.875 244.743 102.942 245.539Z" fill="#FF5C00"/>
<path d="M287.48 87.1888C290.971 88.0722 294.394 85.3896 295.129 81.1948C295.753 82.3441 296.378 83.4943 297.002 84.6453C296.268 88.836 292.842 91.5202 289.354 90.6393C288.729 89.49 288.104 88.3399 287.48 87.1888Z" fill="#FFBA49"/>
<path d="M8.31141 139.099C7.06039 135.086 3.34032 133.05 0 134.555C0.472512 133.307 0.94572 132.058 1.41962 130.807C4.75717 129.304 8.47932 131.337 9.73104 135.349C9.25854 136.599 8.78533 137.849 8.31141 139.099Z" fill="#FFBA49"/>
<path d="M95.0042 187.983C95.2507 192.256 98.335 195.481 101.892 195.183C101.142 196.221 100.39 197.254 99.6417 198.292C96.0834 198.586 93.0003 195.36 92.7539 191.087C93.504 190.054 94.2541 189.019 95.0042 187.983Z" fill="#DB3022"/>
<path d="M69.8633 110.334C73.3959 109.745 75.8615 105.826 75.37 101.582C76.2826 102.411 77.1938 103.239 78.1037 104.065C78.5938 108.311 76.1296 112.228 72.597 112.819C71.6871 111.99 70.7758 111.162 69.8633 110.334Z" fill="#021193"/>
<path d="M213.913 58.2873C209.332 58.4394 212.625 66.5337 208.043 66.6891C207.169 65.8065 206.294 64.924 205.418 64.0414C210 63.8885 206.707 55.7942 211.288 55.6389C212.163 56.5215 213.039 57.4043 213.913 58.2873Z" fill="#FF5C00"/>
<path d="M222.239 271.032C217.781 269.763 219.226 278.603 214.766 277.336C214.109 276.211 213.453 275.087 212.797 273.963C217.257 275.232 215.811 266.392 220.272 267.661C220.927 268.785 221.583 269.909 222.239 271.032Z" fill="#FFBA49"/>
<path d="M89.6422 282.54C86.4929 286.542 93.5851 289.473 90.4357 293.472C89.2984 293.589 88.1596 293.711 87.0223 293.827C90.1717 289.828 83.0794 286.9 86.2288 282.898C87.3675 282.781 88.5053 282.661 89.6422 282.54Z" fill="#021193"/>
<path d="M191.658 6.23567C187.174 7.38008 191.625 14.6326 187.143 15.7745C186.152 15.0945 185.155 14.417 184.164 13.7354C188.647 12.5941 184.194 5.34418 188.678 4.19971C189.672 4.88136 190.666 5.56001 191.658 6.23567Z" fill="#DB3022"/>
<path d="M47.7552 30.0759C49.9608 34.9043 54.4566 27.6926 56.6589 32.5194C56.4031 33.8558 56.1505 35.1971 55.8933 36.5343C53.691 31.706 49.1978 38.92 46.9922 34.0917C47.2487 32.7511 47.503 31.4126 47.7552 30.0759Z" fill="#9B9B9B"/>
<path d="M9.73047 219.92C10.3221 219.812 10.8573 219.5 11.2427 219.037C11.6282 218.573 11.8393 217.989 11.8393 217.386C11.8393 216.782 11.6282 216.198 11.2427 215.735C10.8573 215.272 10.3221 214.959 9.73047 214.852" fill="black"/>
<path d="M249.089 24.1506C247.162 24.1506 245.594 22.2666 245.594 19.9508C245.594 17.635 247.162 15.7512 249.089 15.7512C251.016 15.7512 252.584 17.6351 252.584 19.9509C252.584 22.2666 251.016 24.1506 249.089 24.1506ZM249.089 17.4171C248.477 17.4778 247.913 17.7773 247.518 18.2512C247.124 18.7251 246.931 19.3354 246.98 19.9509C246.924 20.2607 246.937 20.5791 247.017 20.8835C247.097 21.188 247.243 21.471 247.444 21.7127C247.645 21.9544 247.897 22.1488 248.181 22.2822C248.465 22.4156 248.775 22.4847 249.089 22.4847C249.403 22.4847 249.713 22.4156 249.997 22.2822C250.281 22.1488 250.533 21.9544 250.734 21.7127C250.935 21.471 251.081 21.188 251.161 20.8835C251.241 20.5791 251.254 20.2607 251.198 19.9509C251.247 19.3354 251.054 18.7251 250.66 18.2512C250.265 17.7774 249.701 17.4778 249.089 17.4171Z" fill="black"/>
<path d="M45.6164 183.262C43.689 183.262 42.1211 181.378 42.1211 179.063C42.1211 176.747 43.6891 174.863 45.6164 174.863C47.5437 174.863 49.1117 176.747 49.1117 179.063C49.1117 181.378 47.5437 183.262 45.6164 183.262ZM45.6164 176.529C45.0248 176.636 44.4896 176.949 44.1041 177.412C43.7187 177.875 43.5075 178.459 43.5075 179.063C43.5075 179.666 43.7187 180.25 44.1041 180.713C44.4896 181.176 45.0248 181.489 45.6164 181.596C46.208 181.489 46.7432 181.176 47.1287 180.713C47.5141 180.25 47.7252 179.666 47.7252 179.063C47.7252 178.459 47.5141 177.875 47.1287 177.412C46.7432 176.949 46.208 176.636 45.6164 176.529Z" fill="black"/>
</g>
<defs>
<clipPath id="clip0_5789_22064">
<rect width="297" height="305" fill="white"/>
</clipPath>
</defs>
</svg>
