<svg width="39" height="39" viewBox="0 0 39 39" fill="none" xmlns="http://www.w3.org/2000/svg">
<path d="M3.9002 1.9502C3.38302 1.9502 2.88703 2.15564 2.52134 2.52134C2.15564 2.88703 1.9502 3.38302 1.9502 3.9002V35.1002C1.9502 35.6174 2.15564 36.1134 2.52134 36.4791C2.88703 36.8447 3.38302 37.0502 3.9002 37.0502H35.1002C35.6174 37.0502 36.1134 36.8447 36.4791 36.4791C36.8447 36.1134 37.0502 35.6174 37.0502 35.1002V3.9002C37.0502 3.38302 36.8447 2.88703 36.4791 2.52134C36.1134 2.15564 35.6174 1.9502 35.1002 1.9502H3.9002ZM32.4422 11.7002C32.8337 11.7002 33.1517 12.0167 33.1517 12.4097V19.7387C33.1517 20.3687 32.3867 20.6867 31.9412 20.2397L29.3027 17.6027L22.1597 24.6677C21.8859 24.9384 21.5164 25.0902 21.1314 25.0902C20.7464 25.0902 20.377 24.9384 20.1032 24.6677L15.3407 19.9577L8.3477 26.9522C8.0734 27.2265 7.70136 27.3806 7.31345 27.3806C6.92553 27.3806 6.5535 27.2265 6.2792 26.9522C6.0049 26.6779 5.8508 26.3059 5.85079 25.9179C5.85079 25.53 6.0049 25.158 6.2792 24.8837L14.2997 16.8587C14.5731 16.5856 14.9436 16.4318 15.33 16.431C15.7165 16.4301 16.0876 16.5823 16.3622 16.8542L21.1322 21.5717L27.2357 15.5342L24.6107 12.9092C24.5122 12.8098 24.4452 12.6835 24.4183 12.5462C24.3914 12.4088 24.4057 12.2666 24.4594 12.1374C24.5131 12.0082 24.6038 11.8977 24.7202 11.8199C24.8365 11.7421 24.9733 11.7005 25.1132 11.7002H32.4422Z" fill="#E7906B"/>
</svg>
