<svg width="41" height="47" viewBox="0 0 41 47" fill="none" xmlns="http://www.w3.org/2000/svg">
<path d="M14.2786 1.00082C13.4633 0.986518 12.6679 1.15804 11.8867 1.63318L11.8875 1.63103C11.5023 1.86554 11.097 2.20528 10.7127 2.28744C9.45518 2.55708 8.39465 3.27417 7.19758 3.65507C6.62816 3.83585 6.35427 4.18468 6.37137 4.77546C6.13779 5.19894 5.76908 5.46403 5.34065 5.66655C4.96112 5.84527 4.59951 6.04944 4.48652 6.50019L4.48099 6.50457C4.03464 7.02517 3.56524 7.52775 3.11005 8.30601L17.0662 3.72236C16.4624 3.14795 15.8355 2.66181 16.5333 1.7804C15.9074 1.82297 15.465 2.18626 14.9378 2.10468C15.2369 1.65913 15.8771 1.75345 16.2192 1.31576C15.5586 1.13539 14.9126 1.0119 14.2786 1.00082ZM21.768 3.78204C21.1799 3.81858 20.6141 3.86503 20.126 4.28776C19.5462 4.78671 18.8945 4.92847 18.2371 4.37356C17.7408 3.95447 17.2572 4.03383 16.6945 4.30644C15.3951 4.93756 14.0622 5.50148 12.7443 6.09226C9.68637 7.46956 6.62968 8.84807 3.57416 10.2278C2.59721 10.5475 2.55393 10.6364 2.7786 11.6103C2.9428 12.3214 3.23907 13.0699 2.40543 13.6001C2.31404 13.6415 2.23671 13.7087 2.18291 13.7934C2.12911 13.8781 2.10118 13.9767 2.10254 14.0771C2.10177 14.0775 2.10098 14.0779 2.10015 14.0782C1.88375 14.8348 2.06521 15.5704 2.20257 16.3137C2.28987 16.7842 2.50851 16.7662 2.8697 16.5945C3.68691 16.2046 4.51609 15.8393 5.34445 15.4741C7.96358 14.3218 10.5832 13.1704 13.2032 12.0197C13.2767 12.0228 13.3502 12.0161 13.4219 11.9997C13.3368 12.0447 13.2582 12.0981 13.2152 12.1983L10.5284 13.7742L6.48263 15.837C5.32355 16.0372 4.31827 16.6639 3.21966 17.0194C2.53973 17.239 2.67485 17.4759 3.1383 17.7813C3.57193 18.3041 4.21082 18.4333 4.81005 18.6365L4.81253 18.6351C5.27689 18.853 5.73843 19.0782 6.20799 19.2855C6.6446 19.4797 7.05048 19.5469 7.31619 18.9927C7.46552 18.6783 7.73718 18.6326 8.06253 18.7821C8.56951 19.0185 9.10622 19.0255 9.64887 18.9317L9.64838 18.9322C9.64959 18.9322 9.65069 18.9323 9.65168 18.9324L9.65441 18.9346L9.65821 18.9329C9.86387 18.9508 10.067 18.9534 10.2455 18.8226C10.491 18.8226 10.7387 18.8032 10.9813 18.8278C12.1366 18.9458 13.3396 18.5529 14.4523 19.1684C14.6636 19.2848 14.8606 19.0541 15.0494 18.9578C17.054 17.9311 19.0566 16.8995 21.0572 15.8632C23.7141 14.493 26.3701 13.1229 29.0251 11.7531C29.2527 11.6351 29.7713 11.5836 29.3191 11.1228V11.119C29.009 10.494 28.7312 9.85707 28.6212 9.16073L28.6233 9.15825C28.5882 8.63922 28.4114 8.1635 28.1874 7.69895C27.9933 7.30085 27.7748 7.19016 27.3218 7.39186C26.2732 7.85939 25.1976 8.28601 24.123 8.67063C23.0483 9.05525 22.0504 9.6595 20.8951 9.81631L20.8916 9.8159L20.8922 9.81557C20.8817 9.63851 21.0414 9.65868 21.1377 9.60495L26.8384 6.42836C26.8593 5.89577 26.6683 5.417 26.4652 4.94194L26.464 4.94252L26.4642 4.94194C26.1911 4.24957 25.712 4.04705 25.0195 4.32413C24.5499 4.51889 24.0496 4.62868 23.5417 4.64841V4.64684L23.538 4.64816L23.1432 4.61626C22.5879 4.49747 22.2387 4.03961 21.7677 3.78196L21.768 3.78204ZM30.1582 12.7927C30.0291 12.8005 29.8832 12.8547 29.711 12.9451C27.6094 14.0483 25.489 15.1155 23.3747 16.1933C20.8902 17.463 18.4019 18.7193 15.9264 20.0025C15.7705 20.0824 15.3326 20.0653 15.5415 20.4559C15.8144 20.9643 15.7318 21.5016 15.7458 22.0346C15.7455 22.0347 15.7453 22.0348 15.7451 22.035V22.0371C15.7392 22.2983 15.7337 22.5593 15.7288 22.8199C15.7868 23.2382 15.94 23.6377 16.1765 23.9874L16.1792 23.988L16.1773 23.9888L16.4795 24.3915L17.1878 25.2788C17.3087 26.1041 17.7288 26.113 18.4379 25.8703C21.0082 24.989 23.6039 24.1793 26.1899 23.3428L26.3392 23.4967L26.3413 23.4963L23.5227 24.8313C23.0532 24.9568 22.6271 25.1764 22.2053 25.4147C22.1435 25.4077 22.081 25.418 22.0247 25.4444C21.9683 25.4707 21.9203 25.5121 21.886 25.564C20.7665 25.9809 19.6757 26.4715 18.6208 27.0324C18.6034 27.0243 18.5836 27.0231 18.5653 27.0292C18.5471 27.0353 18.532 27.0482 18.523 27.0652C18.2957 27.0901 18.0822 27.1866 17.9133 27.3408C17.5215 27.429 17.0811 27.5567 17.102 28.0243C17.1542 29.1931 16.7489 30.2559 16.4475 31.3463L16.4467 31.3465C16.354 31.5082 16.3131 31.6944 16.3295 31.8801C16.3459 32.0658 16.4189 32.2419 16.5386 32.3847C16.7684 32.6603 17.0736 32.3354 17.3259 32.2436C21.1543 30.8544 24.9794 29.4564 28.8014 28.0497C29.3066 27.8644 29.955 27.7822 30.2618 27.42C30.5917 27.0294 30.1453 26.3997 30.1797 25.8642C30.2228 25.6344 30.2666 25.4046 30.3098 25.174C30.3099 25.1737 30.3101 25.1735 30.3104 25.1733C30.5403 24.466 31.103 23.9454 31.3904 23.2702L32.7009 21.4478C32.9793 20.8504 33.6621 20.6621 34.0248 20.149L34.0078 20.1548L34.0211 20.1475C34.8009 19.6687 35.1345 18.8576 35.6837 18.0136L32.1374 19.104C31.9365 19.1172 31.7388 19.1467 31.5428 19.1846C31.6468 19.1246 31.738 19.0447 31.8113 18.9494C32.0293 18.8448 32.2494 18.7426 32.4658 18.6343C33.6077 18.0637 34.8607 17.7312 35.9354 17.0172C35.9064 17.0118 35.8802 16.9968 35.8608 16.9746C35.8854 16.988 35.91 17.0015 35.9354 17.0172C36.0391 16.7057 36.0003 16.389 35.9414 16.0805L35.9436 16.085C35.86 15.6481 35.6682 15.424 35.1973 15.7392C34.8997 15.9525 34.5565 16.0935 34.195 16.1508L34.1922 16.1525C34.1922 16.1514 34.1924 16.1503 34.1929 16.1492C33.5384 16.0999 32.8629 16.1127 32.4137 15.498H32.4158C32.2053 15.209 31.9815 15.4173 31.7681 15.5024C30.1185 16.1658 28.4693 16.8303 26.8206 17.496C26.6969 17.5075 26.5786 17.5356 26.4628 17.5723C26.5335 17.5036 26.5957 17.4264 26.6379 17.3294C27.8304 16.7105 29.0215 16.0896 30.2111 15.4666C30.7298 15.1948 31.5777 14.9991 31.6762 14.6152C31.8046 14.1177 30.9993 13.7091 30.706 13.1862C30.5419 12.8954 30.3735 12.7797 30.1584 12.7927H30.1582ZM30.3741 28.141C30.3023 28.1362 30.2101 28.1569 30.0916 28.2057C25.9264 29.9262 21.7572 31.6372 17.5841 33.3385C17.2654 33.4715 17.1967 33.588 17.3602 33.9196C17.7587 34.7261 18.1251 35.5498 18.3304 36.4333L18.3289 36.4336H18.3304V36.4346C18.355 36.6773 18.414 36.9231 18.3983 37.1636C18.361 37.7201 18.4617 37.8911 19.0663 37.6222C21.8321 36.3897 24.6278 35.2261 27.3929 33.9929C28.5699 33.4679 29.3714 32.535 29.8632 31.34L29.8604 31.3402C29.861 31.34 29.8613 31.3397 29.8619 31.339C30.5754 30.5219 30.6866 29.545 30.6083 28.5188C30.5903 28.2857 30.5321 28.1513 30.3743 28.1409L30.3741 28.141ZM34.9661 29.6683C34.6337 29.6708 34.4162 30.0147 34.2621 30.3224C34.1243 30.5966 34.0245 30.8901 33.9077 31.1755L33.9067 31.1764C33.7023 31.5984 33.5388 31.9755 32.8902 31.8724C32.4342 31.7999 31.8088 32.1622 31.8528 32.5946C31.9438 33.4976 31.3402 34.2707 31.5252 35.1521C31.5964 35.2175 31.6657 35.2422 31.734 35.244C31.6516 35.2939 31.5747 35.3537 31.5096 35.4344C31.3946 35.8729 31.2692 36.3098 31.3909 36.7691L31.3931 36.7689C31.7484 37.5521 32.0153 37.6518 32.7831 37.4325C33.7131 37.1655 33.7093 36.3727 33.8632 35.6571C34.0041 35.2906 34.1077 34.9203 34.0653 34.4837L32.7218 34.8914L32.721 34.8952C32.6154 34.9348 32.4947 34.9048 32.3887 34.9487C32.4573 34.8941 32.5181 34.83 32.5642 34.748C32.7926 34.6143 33.0097 34.4524 33.2523 34.3508C34.9337 33.651 35.2062 32.1758 35.3323 30.6163C35.3397 30.2823 35.5711 29.8163 35.1159 29.6893C35.0672 29.6753 35.0168 29.6683 34.9661 29.6685V29.6683ZM27.3877 34.5596C24.5583 36.0213 21.8553 37.448 19.1193 38.8081C18.4162 39.1584 18.2923 39.5393 18.6543 40.1705C18.8079 40.7409 19.2077 41.0999 19.6984 41.3822V41.3828L19.6989 41.3827L19.6992 41.3828L19.7007 41.3831C19.8826 41.6275 20.1391 41.7228 20.4284 41.7541C21.453 42.3591 22.6762 41.813 23.2397 40.4984C23.9562 40.0922 24.6682 39.6694 25.3907 39.2706C25.8546 39.0145 26.1815 38.6979 26.0715 38.1151L26.0721 38.1142C26.2102 37.731 26.7043 37.6354 26.7983 37.2179C26.714 36.3164 27.4736 35.5746 27.3885 34.5611L27.3877 34.5596Z" fill="#E7906B"/>
</svg>
