<svg width="46" height="46" viewBox="0 0 46 46" fill="none" xmlns="http://www.w3.org/2000/svg">
<path d="M25.894 6.01594C24.6443 3.74469 21.3553 3.74469 20.1037 6.01594C18.4578 9.00668 17.1011 12.1476 16.0519 15.3961C16.0024 15.5232 15.9153 15.6322 15.8023 15.7086C15.6893 15.7849 15.5557 15.825 15.4194 15.8235C12.6076 15.8966 9.80489 16.1759 7.03395 16.6592C4.47137 17.1058 3.34245 20.1801 5.28979 22.0834C5.53512 22.3236 5.78301 22.5625 6.03345 22.8002C7.90951 24.5766 9.89594 26.2327 11.9809 27.7586C12.0756 27.8215 12.1473 27.9134 12.1854 28.0205C12.2234 28.1277 12.2256 28.2443 12.1917 28.3528C11.1391 31.5109 10.387 34.7612 9.94537 38.0607C9.5812 40.79 12.4715 42.4652 14.7275 41.3075C17.4661 39.9039 20.0848 38.2776 22.557 36.4449C22.6865 36.3534 22.8412 36.3042 22.9998 36.3042C23.1584 36.3042 23.3131 36.3534 23.4425 36.4449C25.9133 38.2798 28.5321 39.9062 31.2721 41.3075C33.528 42.4652 36.4184 40.79 36.0542 38.0607C35.6132 34.7613 34.8617 31.5109 33.8098 28.3528C33.7759 28.2443 33.7781 28.1277 33.8161 28.0205C33.8541 27.9134 33.9259 27.8215 34.0206 27.7586C36.3829 26.0296 38.6183 24.1336 40.7098 22.0853C42.6571 20.1801 41.5282 17.1058 38.9656 16.6592C36.194 16.1758 33.3907 15.8965 30.5783 15.8235C30.4422 15.8246 30.3091 15.7843 30.1964 15.708C30.0838 15.6317 29.9971 15.5229 29.9477 15.3961C28.9018 12.1464 27.543 9.00512 25.894 6.01594Z" fill="#E7906B"/>
</svg>
