<svg width="26" height="21" viewBox="0 0 26 21" fill="none" xmlns="http://www.w3.org/2000/svg">
<path d="M25.5 6.34849L25.5 6.34992C25.5018 7.11245 25.3431 7.86853 25.0323 8.57473C24.7214 9.28101 24.2641 9.92426 23.6852 10.4664L23.6851 10.4664L23.6814 10.4699L13.3171 20.3776L13.317 20.3778C13.2784 20.4146 13.2308 20.4455 13.1762 20.467L13.3596 20.9321L13.1762 20.467C13.1215 20.4886 13.0619 20.5 13.001 20.5C12.9402 20.5 12.8805 20.4886 12.8259 20.467L12.6424 20.9321L12.8259 20.467C12.7713 20.4455 12.7237 20.4146 12.6851 20.3777L12.685 20.3776L2.32066 10.4699L2.32067 10.4699L2.31778 10.4672C1.151 9.36942 0.500997 7.88657 0.500001 6.34681C0.499005 4.80704 1.14709 3.32347 2.31242 2.22437C3.47876 1.12431 5.06729 0.500956 6.72988 0.500001C8.39248 0.499047 9.98182 1.12058 11.1496 2.21932L11.1556 2.22498L11.1618 2.23044L12.6706 3.55883L13.0004 3.8492L13.3308 3.55942L14.85 2.22666L14.8562 2.22123L14.8622 2.21559C15.7335 1.39896 16.8455 0.84075 18.0594 0.615649C19.2733 0.390533 20.5305 0.509496 21.6712 0.956428C22.8117 1.40329 23.7813 2.15659 24.461 3.11679C25.1403 4.07658 25.5005 5.20109 25.5 6.34849Z" fill="white" stroke="#E7906B"/>
</svg>
