<svg width="28" height="28" viewBox="0 0 28 28" fill="none" xmlns="http://www.w3.org/2000/svg">
<circle cx="14" cy="14" r="13.5" fill="#E7906B" fill-opacity="0.17" stroke="#E7906B"/>
<path d="M17.6726 7.95905C16.7882 7.31968 15.6773 7 14.3398 7C13.322 7 12.4642 7.22505 11.7665 7.67514C10.6597 8.38036 10.0709 9.5769 10 11.2648H12.5656C12.5656 10.7732 12.7086 10.2992 12.9946 9.84291C13.2806 9.38711 13.7662 9.15921 14.4515 9.15921C15.1487 9.15921 15.6281 9.34407 15.8898 9.71379C16.1526 10.0846 16.2839 10.4947 16.2839 10.9443C16.2839 11.3363 16.0884 11.6949 15.8518 12.02C15.7106 12.2217 15.5374 12.3988 15.339 12.5443C15.339 12.5443 13.948 13.4387 13.3375 14.1574C12.9837 14.5736 12.9519 15.1982 12.9201 16.0926C12.9185 16.1564 12.9426 16.2887 13.1645 16.2887H15.159C15.3576 16.2887 15.3988 16.1417 15.4011 16.0755C15.4151 15.7504 15.4507 15.5832 15.5105 15.3949C15.6222 15.0395 15.9279 14.7299 16.27 14.4623L16.976 13.9747C17.6137 13.4761 18.1218 13.0677 18.3468 12.7473C18.73 12.2215 19 11.5728 19 10.8027C18.9995 9.54734 18.557 8.59945 17.6726 7.95905ZM14.2987 17.8303C13.4151 17.8031 12.6858 18.4168 12.6579 19.3781C12.6307 20.338 13.3235 20.9734 14.2079 20.9991C15.1303 21.0263 15.8402 20.4336 15.8689 19.4723C15.8953 18.5109 15.2219 17.8575 14.2987 17.8303Z" fill="#E7906B"/>
</svg>
