<svg width="25" height="24" viewBox="0 0 25 24" fill="none" xmlns="http://www.w3.org/2000/svg">
<path d="M8.89062 18.49V8.32998C8.89062 7.92998 9.01062 7.53998 9.23062 7.20998L11.9606 3.14998C12.3906 2.49998 13.4606 2.03998 14.3706 2.37998C15.3506 2.70998 16.0006 3.80997 15.7906 4.78997L15.2706 8.05998C15.2306 8.35998 15.3106 8.62998 15.4806 8.83998C15.6506 9.02998 15.9006 9.14997 16.1706 9.14997H20.2806C21.0706 9.14997 21.7506 9.46997 22.1506 10.03C22.5306 10.57 22.6006 11.27 22.3506 11.98L19.8906 19.47C19.5806 20.71 18.2306 21.72 16.8906 21.72H12.9906C12.3206 21.72 11.3806 21.49 10.9506 21.06L9.67062 20.07C9.18062 19.7 8.89062 19.11 8.89062 18.49Z" fill="#141414"/>
<path d="M5.71 6.37988H4.68C3.13 6.37988 2.5 6.97988 2.5 8.45988V18.5199C2.5 19.9999 3.13 20.5999 4.68 20.5999H5.71C7.26 20.5999 7.89 19.9999 7.89 18.5199V8.45988C7.89 6.97988 7.26 6.37988 5.71 6.37988Z" fill="#141414"/>
</svg>
