<svg width="284" height="40" viewBox="0 0 284 40" fill="none" xmlns="http://www.w3.org/2000/svg">
<path d="M180.852 0.69722C160.655 1.32217 140.471 2.37036 120.321 3.8418C102.035 4.16585 83.7466 4.4899 65.4611 4.81394C45.3966 5.17106 25.3321 5.52486 5.27097 5.88198C3.33 5.91504 0.324291 7.34019 0.0266969 9.49279C-0.300657 11.8669 2.63561 12.2637 4.28891 12.2373C17.3269 12.0058 30.3648 11.7743 43.4027 11.5429C37.9766 12.234 32.5571 12.9515 27.1376 13.7021C25.2594 13.9633 22.6373 14.8429 22.0388 16.8963C21.5031 18.7281 23.1762 20.0276 24.9519 20.0607C55.0618 20.5765 85.1751 21.0957 115.285 21.6115C121.693 21.7206 128.101 21.833 134.51 21.9422C125.291 22.9507 116.085 24.1113 106.906 25.424C92.5124 27.4873 78.1783 29.9342 63.907 32.7217C62.3661 33.0226 60.1805 34.3717 59.9457 36.101C59.7175 37.7543 61.5395 38.8356 63.001 38.8488C97.2442 39.1464 131.487 39.4473 165.731 39.7449C175.386 39.8276 185.038 39.9136 194.693 39.9962C196.905 40.0161 199.742 39.3845 200.857 37.2121C201.852 35.2678 199.987 33.6508 198.086 33.6343C165.122 33.3466 132.159 33.059 99.1951 32.7713C100.114 32.6324 101.03 32.4902 101.949 32.3547C114.405 30.5096 126.904 28.9455 139.43 27.6659C164.494 25.1066 189.67 23.6814 214.863 23.4004C215.978 23.3871 217.105 23.3805 218.23 23.3739C231 23.5922 243.767 23.8137 256.537 24.0319C258.745 24.0683 261.592 23.407 262.7 21.2478C263.719 19.2638 261.814 17.7461 259.929 17.67C246.898 17.1476 233.853 16.9227 220.812 16.9988C203.74 16.7045 186.668 16.4135 169.596 16.1192C139.486 15.6034 109.373 15.0843 79.2629 14.5684C76.8358 14.5254 74.4055 14.4858 71.9784 14.4428C87.7443 12.7663 103.537 11.3478 119.349 10.1938C152.312 9.60852 185.279 9.02656 218.243 8.44129C238.307 8.08418 258.372 7.73037 278.433 7.37326C280.275 7.34019 282.98 6.07707 283.532 4.17908C284.074 2.32407 282.388 1.08079 280.619 1.01465C247.377 -0.222016 214.096 -0.331134 180.852 0.69722Z" fill="#E7906B"/>
</svg>
