<svg width="12" height="17" viewBox="0 0 12 17" fill="none" xmlns="http://www.w3.org/2000/svg">
<path fill-rule="evenodd" clip-rule="evenodd" d="M6 0C4.4087 0 2.88258 0.623587 1.75736 1.73358C0.632141 2.84357 0 4.34904 0 5.91881C0 7.2683 0.672 8.86401 1.6524 10.5757C2.6448 12.3076 4.0128 14.2537 5.5116 16.3253L6 17L6.4884 16.3253C7.9884 14.2537 9.3552 12.3076 10.3476 10.5757C11.328 8.86401 12 7.2683 12 5.91881C12 5.14154 11.8448 4.37188 11.5433 3.65378C11.2417 2.93568 10.7998 2.28319 10.2426 1.73358C9.68549 1.18397 9.02405 0.74799 8.2961 0.450542C7.56815 0.153095 6.78793 0 6 0ZM6 2.9594C5.20435 2.9594 4.44129 3.2712 3.87868 3.82619C3.31607 4.38119 3 5.13393 3 5.91881C3 6.70369 3.31607 7.45643 3.87868 8.01142C4.44129 8.56642 5.20435 8.87821 6 8.87821C6.79565 8.87821 7.55871 8.56642 8.12132 8.01142C8.68393 7.45643 9 6.70369 9 5.91881C9 5.13393 8.68393 4.38119 8.12132 3.82619C7.55871 3.2712 6.79565 2.9594 6 2.9594Z" fill="#FF800F"/>
</svg>
