<svg width="17" height="18" viewBox="0 0 17 18" fill="none" xmlns="http://www.w3.org/2000/svg">
<path d="M1.717 17.1887C1.22754 17.1887 0.819187 17.0251 0.491937 16.6978C0.164687 16.3706 0.000708333 15.9619 0 15.4717V1.90572C0 1.41626 0.163979 1.00791 0.491937 0.680658C0.819896 0.353408 1.22825 0.189429 1.717 0.188721H8.52019V1.25122H1.717C1.55338 1.25122 1.40321 1.31922 1.2665 1.45522C1.12979 1.59122 1.06179 1.74139 1.0625 1.90572V15.4728C1.0625 15.6357 1.1305 15.7855 1.2665 15.9222C1.4025 16.0589 1.55231 16.1269 1.71594 16.1262H8.52019V17.1887H1.717ZM13.2409 12.4489L12.495 11.6839L14.9589 9.21997H5.5165V8.15747H14.9589L12.4939 5.69247L13.2398 4.9296L17 8.68872L13.2409 12.4489Z" fill="#E7906B"/>
</svg>
