<svg width="29" height="19" viewBox="0 0 29 19" fill="none" xmlns="http://www.w3.org/2000/svg">
<rect x="0.5" y="0.5" width="28" height="18" rx="5.5" fill="white" stroke="#D9D9D9"/>
<path fill-rule="evenodd" clip-rule="evenodd" d="M14.7081 13.5825C13.7208 14.3966 12.4401 14.888 11.0407 14.888C7.91809 14.888 5.38672 12.4413 5.38672 9.42312C5.38672 6.40495 7.91809 3.95825 11.0407 3.95825C12.4401 3.95825 13.7208 4.44968 14.7081 5.26373C15.6954 4.44968 16.9761 3.95825 18.3756 3.95825C21.4982 3.95825 24.0296 6.40495 24.0296 9.42312C24.0296 12.4413 21.4982 14.888 18.3756 14.888C16.9761 14.888 15.6954 14.3966 14.7081 13.5825Z" fill="#ED0006"/>
<path fill-rule="evenodd" clip-rule="evenodd" d="M14.707 13.5825C15.9227 12.5801 16.6936 11.0886 16.6936 9.42312C16.6936 7.75759 15.9227 6.26609 14.707 5.26373C15.6943 4.44968 16.975 3.95825 18.3745 3.95825C21.4971 3.95825 24.0285 6.40495 24.0285 9.42312C24.0285 12.4413 21.4971 14.888 18.3745 14.888C16.975 14.888 15.6943 14.3966 14.707 13.5825Z" fill="#F9A000"/>
<path fill-rule="evenodd" clip-rule="evenodd" d="M14.7092 13.5824C13.4935 12.58 12.7227 11.0885 12.7227 9.42303C12.7227 7.75752 13.4935 6.26603 14.7092 5.26367C15.9248 6.26603 16.6957 7.75752 16.6957 9.42303C16.6957 11.0885 15.9248 12.58 14.7092 13.5824Z" fill="#FF5E00"/>
</svg>
