<svg width="18" height="20" viewBox="0 0 18 20" fill="none" xmlns="http://www.w3.org/2000/svg">
<path d="M17.3576 4.4993L9.59294 0.338332C9.4114 0.240195 9.20739 0.188721 9 0.188721C8.79261 0.188721 8.5886 0.240195 8.40706 0.338332L0.642353 4.4993C0.448063 4.60335 0.285927 4.75661 0.172918 4.94304C0.0599099 5.12946 0.00018606 5.3422 0 5.55897V13.8187C0.00018606 14.0355 0.0599099 14.2482 0.172918 14.4347C0.285927 14.6211 0.448063 14.7743 0.642353 14.8784L8.40706 19.0394C8.58866 19.1373 8.79264 19.1887 9 19.1887C9.20736 19.1887 9.41135 19.1373 9.59294 19.0394L17.3576 14.8784C17.5519 14.7743 17.7141 14.6211 17.8271 14.4347C17.9401 14.2482 17.9998 14.0355 18 13.8187V5.55897C17.9998 5.3422 17.9401 5.12946 17.8271 4.94304C17.7141 4.75661 17.5519 4.60335 17.3576 4.4993ZM8.91177 1.24687C8.93774 1.23296 8.96687 1.22567 8.99647 1.22567C9.02608 1.22567 9.05521 1.23296 9.08118 1.24687L16.4568 5.19797L13.4621 6.80173L6.00441 2.80658L8.91177 1.24687ZM8.47059 17.8933L1.14706 13.9699C1.12 13.9546 1.09757 13.9325 1.08207 13.906C1.06657 13.8794 1.05854 13.8493 1.05882 13.8187V6.1186L8.47059 10.0913V17.8933ZM1.54324 5.19797L4.90235 3.39731L12.3591 7.39245L9 9.19139L1.54324 5.19797ZM16.9412 13.8187C16.9415 13.8493 16.9334 13.8794 16.9179 13.906C16.9024 13.9325 16.88 13.9546 16.8529 13.9699L9.52941 17.8933V10.0896L12.7059 8.38735V11.7616C12.7059 11.899 12.7617 12.0308 12.8609 12.128C12.9602 12.2251 13.0949 12.2797 13.2353 12.2797C13.3757 12.2797 13.5104 12.2251 13.6096 12.128C13.7089 12.0308 13.7647 11.899 13.7647 11.7616V7.82081L16.9412 6.1186V13.8187Z" fill="black"/>
</svg>
