<svg width="13" height="10" viewBox="0 0 13 10" fill="none" xmlns="http://www.w3.org/2000/svg">
<path d="M8.54172 10C8.72613 10 8.90115 9.96048 9.06678 9.88143C9.23241 9.80238 9.36843 9.69262 9.47483 9.55214L13 5L9.47556 0.447857C9.36819 0.307857 9.23193 0.198333 9.06678 0.119286C8.90163 0.040238 8.72661 0.00047619 8.54172 0H1.16639C0.845722 0 0.571279 0.113095 0.343056 0.339286C0.114834 0.565476 0.000481606 0.836905 0 1.15357V8.84643C0 9.16357 0.114352 9.435 0.343056 9.66071C0.57176 9.88643 0.846204 9.99952 1.16639 10H8.54172ZM12.0972 5L8.90283 9.12143C8.85661 9.17571 8.80341 9.21667 8.74322 9.24429C8.68304 9.2719 8.61587 9.28571 8.54172 9.28571H1.16639C1.03687 9.28571 0.930464 9.24452 0.847167 9.16214C0.763871 9.07976 0.722222 8.97429 0.722222 8.84572V1.15429C0.722222 1.02571 0.763871 0.920238 0.847167 0.837857C0.930464 0.755476 1.03687 0.714286 1.16639 0.714286H8.54172C8.61587 0.714286 8.68304 0.728095 8.74322 0.755714C8.80341 0.783333 8.85661 0.824524 8.90283 0.879286L12.0972 5ZM8.0275 5.55C7.87824 5.55 7.74848 5.49524 7.63822 5.38571C7.52796 5.27619 7.47259 5.14762 7.47211 5C7.47163 4.85238 7.527 4.72381 7.63822 4.61429C7.74944 4.50476 7.87944 4.45 8.02822 4.45C8.177 4.45 8.30676 4.50476 8.4175 4.61429C8.52824 4.72381 8.58361 4.85238 8.58361 5C8.58361 5.14762 8.52824 5.27619 8.4175 5.38571C8.30676 5.49524 8.17676 5.55 8.0275 5.55ZM5.49972 5.55C5.35046 5.55 5.2207 5.49524 5.11044 5.38571C5.00019 5.27619 4.94481 5.14762 4.94433 5C4.94385 4.85238 4.99922 4.72381 5.11044 4.61429C5.22167 4.50476 5.35167 4.45 5.50044 4.45C5.64922 4.45 5.77898 4.50476 5.88972 4.61429C6.00046 4.72381 6.05583 4.85238 6.05583 5C6.05583 5.14762 6.00046 5.27619 5.88972 5.38571C5.77898 5.49524 5.64898 5.55 5.49972 5.55ZM2.97194 5.55C2.82269 5.55 2.69293 5.49524 2.58267 5.38571C2.47241 5.27619 2.41704 5.14762 2.41656 5C2.41607 4.85238 2.47145 4.72381 2.58267 4.61429C2.69389 4.50476 2.82389 4.45 2.97267 4.45C3.12144 4.45 3.2512 4.50476 3.36195 4.61429C3.47269 4.72381 3.52806 4.85238 3.52806 5C3.52806 5.14762 3.47269 5.27619 3.36195 5.38571C3.2512 5.49524 3.1212 5.55 2.97194 5.55Z" fill="black"/>
</svg>
