<svg width="13" height="13" viewBox="0 0 13 13" fill="none" xmlns="http://www.w3.org/2000/svg">
<path d="M2.61444 5.62611C3.65444 7.67 5.33 9.34555 7.37389 10.3856L8.96278 8.79667C9.165 8.59444 9.44667 8.53667 9.69944 8.61611C10.5083 8.88333 11.375 9.02778 12.2778 9.02778C12.4693 9.02778 12.653 9.10387 12.7885 9.23931C12.9239 9.37475 13 9.55845 13 9.75V12.2778C13 12.4693 12.9239 12.653 12.7885 12.7885C12.653 12.9239 12.4693 13 12.2778 13C9.02151 13 5.89861 11.7065 3.59608 9.40392C1.29355 7.10139 0 3.97849 0 0.722222C0 0.530677 0.076091 0.346977 0.211534 0.211534C0.346977 0.076091 0.530677 0 0.722222 0H3.25C3.44155 0 3.62525 0.076091 3.76069 0.211534C3.89613 0.346977 3.97222 0.530677 3.97222 0.722222C3.97222 1.625 4.11667 2.49167 4.38389 3.30056C4.46333 3.55333 4.40556 3.835 4.20333 4.03722L2.61444 5.62611Z" fill="#FF800F"/>
</svg>
