<svg width="11" height="19" viewBox="0 0 11 19" fill="none" xmlns="http://www.w3.org/2000/svg">
<path d="M0.5 0V19H10.5V0H0.5ZM4.64321 0.842572H6.35514C6.44246 0.842572 6.5262 0.87808 6.58794 0.941286C6.64968 1.00449 6.68436 1.09022 6.68436 1.1796C6.68436 1.26899 6.64968 1.35471 6.58794 1.41792C6.5262 1.48112 6.44246 1.51663 6.35514 1.51663H4.64321C4.5559 1.51663 4.47216 1.48112 4.41042 1.41792C4.34868 1.35471 4.31399 1.26899 4.31399 1.1796C4.31399 1.09022 4.34868 1.00449 4.41042 0.941286C4.47216 0.87808 4.5559 0.842572 4.64321 0.842572ZM5.47942 18.5581C5.32266 18.5581 5.16942 18.5105 5.03908 18.4213C4.90874 18.3322 4.80715 18.2054 4.74716 18.0572C4.68717 17.9089 4.67148 17.7458 4.70206 17.5884C4.73264 17.431 4.80813 17.2864 4.91898 17.1729C5.02982 17.0595 5.17105 16.9822 5.3248 16.9509C5.47854 16.9196 5.63791 16.9356 5.78274 16.997C5.92756 17.0585 6.05135 17.1625 6.13844 17.2959C6.22553 17.4293 6.27202 17.5862 6.27202 17.7467C6.27202 17.9619 6.18851 18.1683 6.03987 18.3204C5.89123 18.4726 5.68963 18.5581 5.47942 18.5581ZM9.80041 16.6829H1.11728V2.23282H9.80041V16.6829Z" fill="black"/>
</svg>
