<svg width="6" height="8" viewBox="0 0 6 8" fill="none" xmlns="http://www.w3.org/2000/svg">
<path d="M3 0C2.20463 0.000945271 1.44209 0.332374 0.879676 0.921575C0.317262 1.51078 0.000902295 2.30963 0 3.14289C0 5.8322 2.72727 7.86329 2.84352 7.94829C2.88938 7.98195 2.94401 8 3 8C3.05599 8 3.11062 7.98195 3.15648 7.94829C3.27273 7.86329 6 5.8322 6 3.14289C5.9991 2.30963 5.68274 1.51078 5.12032 0.921575C4.55791 0.332374 3.79537 0.000945271 3 0ZM3 2.00002C3.21576 2.00002 3.42668 2.06705 3.60608 2.19263C3.78548 2.31821 3.9253 2.4967 4.00787 2.70553C4.09044 2.91436 4.11204 3.14416 4.06995 3.36585C4.02785 3.58755 3.92396 3.79119 3.77139 3.95102C3.61882 4.11085 3.42444 4.2197 3.21283 4.2638C3.00121 4.3079 2.78186 4.28526 2.58253 4.19876C2.38319 4.11226 2.21281 3.96578 2.09294 3.77783C1.97307 3.58989 1.90909 3.36893 1.90909 3.14289C1.90909 2.83978 2.02403 2.54909 2.22861 2.33476C2.4332 2.12043 2.71067 2.00002 3 2.00002Z" fill="#E92F2F"/>
</svg>
