<svg width="25" height="25" viewBox="0 0 25 25" fill="none" xmlns="http://www.w3.org/2000/svg">
<circle cx="12.5" cy="12.5" r="12.5" fill="#FF800F" fill-opacity="0.2"/>
<path d="M18.9333 20.7C18.8894 20.7913 18.8263 20.867 18.7503 20.9197C18.6742 20.9723 18.588 21 18.5002 21H6.49951C6.41179 20.9999 6.32562 20.9721 6.24968 20.9194C6.17374 20.8667 6.11069 20.791 6.06686 20.6998C6.02304 20.6086 5.99998 20.5052 6 20.3999C6.00002 20.2947 6.02313 20.1913 6.06699 20.1001C7.01892 18.1256 8.48587 16.7098 10.1978 16.0387C9.35103 15.4339 8.6931 14.5122 8.32511 13.4154C7.95711 12.3185 7.89939 11.107 8.16082 9.96702C8.42224 8.82699 8.98835 7.82144 9.77221 7.10478C10.5561 6.38813 11.5143 6 12.4998 6C13.4854 6 14.4436 6.38813 15.2275 7.10478C16.0113 7.82144 16.5774 8.82699 16.8389 9.96702C17.1003 11.107 17.0426 12.3185 16.6746 13.4154C16.3066 14.5122 15.6487 15.4339 14.8018 16.0387C16.5138 16.7098 17.9808 18.1256 18.9327 20.1001C18.9767 20.1913 18.9999 20.2947 19 20.4C19.0001 20.5053 18.9771 20.6088 18.9333 20.7Z" fill="#FF800F"/>
</svg>
