<svg width="78" height="78" viewBox="0 0 78 78" fill="none" xmlns="http://www.w3.org/2000/svg">
<circle cx="39" cy="39" r="39" fill="#D9D9D9" fill-opacity="0.5"/>
<path d="M36.4238 19C34.267 18.9993 32.1311 19.4237 30.1383 20.2487C28.1455 21.0738 26.3348 22.2834 24.8096 23.8084C23.2843 25.3335 22.0746 27.1441 21.2493 29.1369C20.4241 31.1297 19.9996 33.2655 20 35.4224C19.9993 37.5794 20.4237 39.7154 21.2488 41.7084C22.074 43.7014 23.2837 45.5122 24.809 47.0374C26.3342 48.5627 28.145 49.7725 30.1379 50.5976C32.1309 51.4228 34.2668 51.8471 36.4238 51.8465C40.2566 51.8465 43.7763 50.4891 46.5714 48.2898L48.0358 49.7543C47.7351 50.3386 47.6287 51.0036 47.7319 51.6526C47.8351 52.3016 48.1427 52.9007 48.6099 53.3628L56.2988 61.1037C57.4921 62.2988 59.4453 62.2988 60.6403 61.1037L62.1048 59.6392C62.6782 59.0623 63 58.2819 63 57.4684C63 56.655 62.6782 55.8746 62.1048 55.2976L54.364 47.6086C53.8992 47.1437 53.2965 46.8415 52.6458 46.7474C51.9951 46.6533 51.3314 46.7722 50.7539 47.0864L49.2894 45.622C51.2064 43.2029 52.4028 40.2926 52.7415 37.2247C53.0803 34.1568 52.5476 31.0556 51.2046 28.2766C49.8616 25.4976 47.7626 23.1533 45.1483 21.5125C42.534 19.8718 39.5103 19.001 36.4238 19ZM36.4238 22.0328C39.9749 22.0328 43.3806 23.4434 45.8916 25.9545C48.4026 28.4655 49.8133 31.8712 49.8133 35.4224C49.8133 38.9736 48.4026 42.3793 45.8916 44.8903C43.3806 47.4014 39.9749 48.812 36.4238 48.812C32.8727 48.812 29.4671 47.4014 26.9561 44.8903C24.4451 42.3793 23.0344 38.9736 23.0344 35.4224C23.0344 31.8712 24.4451 28.4655 26.9561 25.9545C29.4671 23.4434 32.8727 22.0328 36.4238 22.0328ZM27.95 31.1862C27.0576 32.6323 26.5869 34.2989 26.591 35.9982C26.589 37.2008 26.8244 38.3919 27.2837 39.5034C27.743 40.6148 28.4171 41.6247 29.2675 42.4751C30.1179 43.3255 31.1277 43.9996 32.2391 44.4589C33.3506 44.9182 34.5417 45.1536 35.7443 45.1516C37.6351 45.1495 39.4794 44.5651 41.0265 43.4779C40.6092 43.5171 40.1902 43.5339 39.7712 43.5282C38.2178 43.5321 36.679 43.2291 35.2431 42.6366C33.8072 42.044 32.5025 41.1735 31.4041 40.0752C30.3056 38.9769 29.435 37.6723 28.8422 36.2365C28.2495 34.8006 27.9462 33.2618 27.95 31.7084C27.95 31.5344 27.9416 31.3603 27.95 31.1862Z" fill="#E7906B"/>
</svg>
