<svg width="25" height="27" viewBox="0 0 25 27" fill="none" xmlns="http://www.w3.org/2000/svg">
<rect width="25" height="27" rx="5" fill="#FF800F" fill-opacity="0.1"/>
<path d="M18 9.46885V6.38462C18 6.01739 17.8595 5.66521 17.6095 5.40554C17.3594 5.14588 17.0203 5 16.6667 5H7.33333C6.97971 5 6.64057 5.14588 6.39052 5.40554C6.14048 5.66521 6 6.01739 6 6.38462V9.5C6.00045 9.71487 6.04884 9.92671 6.14138 10.1189C6.23391 10.3111 6.36807 10.4784 6.53333 10.6077L10.8892 14L6.53333 17.3923C6.36807 17.5216 6.23391 17.6889 6.14138 17.8811C6.04884 18.0733 6.00045 18.2851 6 18.5V21.6154C6 21.9826 6.14048 22.3348 6.39052 22.5945C6.64057 22.8541 6.97971 23 7.33333 23H16.6667C17.0203 23 17.3594 22.8541 17.6095 22.5945C17.8595 22.3348 18 21.9826 18 21.6154V18.5312C17.9995 18.3171 17.9515 18.1061 17.8598 17.9144C17.768 17.7227 17.6349 17.5556 17.4708 17.4261L13.1058 14L17.4708 10.5739C17.6349 10.4444 17.768 10.2773 17.8598 10.0856C17.9515 9.89394 17.9995 9.68289 18 9.46885ZM16.6667 6.38462V8.46154H7.33333V6.38462H16.6667ZM16.6667 21.6154H7.33333V18.5L12 14.8654L16.6667 18.5303V21.6154Z" fill="#FF800F"/>
</svg>
