<svg width="28" height="27" viewBox="0 0 28 27" fill="none" xmlns="http://www.w3.org/2000/svg">
<rect width="28" height="27" rx="5" fill="#FF800F" fill-opacity="0.1"/>
<path d="M23.24 7.47712L15.2015 3.17689C14.9868 3.06086 14.7454 3 14.5 3C14.2546 3 14.0132 3.06086 13.7985 3.17689L5.76 7.47891C5.53044 7.60171 5.33881 7.78253 5.20512 8.00246C5.07143 8.2224 5.00059 8.47339 5 8.72924V17.2708C5.00059 17.5266 5.07143 17.7776 5.20512 17.9975C5.33881 18.2175 5.53044 18.3983 5.76 18.5211L13.7985 22.8231C14.0132 22.9391 14.2546 23 14.5 23C14.7454 23 14.9868 22.9391 15.2015 22.8231L23.24 18.5211C23.4696 18.3983 23.6612 18.2175 23.7949 17.9975C23.9286 17.7776 23.9994 17.5266 24 17.2708V8.73013C23.9999 8.47383 23.9293 8.22228 23.7956 8.00183C23.6619 7.78138 23.47 7.60015 23.24 7.47712ZM14.5 4.42722L21.8397 8.35682L19.1194 9.81166L11.7797 5.88206L14.5 4.42722ZM14.5 12.2864L7.16034 8.35682L10.2579 6.69835L17.5975 10.6279L14.5 12.2864ZM22.5385 17.2743L15.2308 21.1852V13.5216L18.1538 11.9578V15.1443C18.1538 15.3338 18.2308 15.5155 18.3679 15.6495C18.5049 15.7835 18.6908 15.8588 18.8846 15.8588C19.0784 15.8588 19.2643 15.7835 19.4013 15.6495C19.5384 15.5155 19.6154 15.3338 19.6154 15.1443V11.1754L22.5385 9.61161V17.2708V17.2743Z" fill="#FF800F"/>
</svg>
