<svg width="28" height="27" viewBox="0 0 28 27" fill="none" xmlns="http://www.w3.org/2000/svg">
<rect width="28" height="27" rx="5" fill="#FF800F" fill-opacity="0.1"/>
<path d="M21.6923 6H7.30769C6.96087 6 6.62825 6.14367 6.38301 6.3994C6.13777 6.65513 6 7.00198 6 7.36364V19.6364C6 19.998 6.13777 20.3449 6.38301 20.6006C6.62825 20.8563 6.96087 21 7.30769 21H21.6923C22.0391 21 22.3717 20.8563 22.617 20.6006C22.8622 20.3449 23 19.998 23 19.6364V7.36364C23 7.00198 22.8622 6.65513 22.617 6.3994C22.3717 6.14367 22.0391 6 21.6923 6ZM14.5 16.2273C13.4599 16.2261 12.4626 15.7948 11.7272 15.0278C10.9917 14.2609 10.578 13.221 10.5769 12.1364C10.5769 11.9555 10.6458 11.7821 10.7684 11.6542C10.8911 11.5264 11.0574 11.4545 11.2308 11.4545C11.4042 11.4545 11.5705 11.5264 11.6931 11.6542C11.8157 11.7821 11.8846 11.9555 11.8846 12.1364C11.8846 12.8597 12.1602 13.5534 12.6506 14.0648C13.1411 14.5763 13.8064 14.8636 14.5 14.8636C15.1936 14.8636 15.8589 14.5763 16.3494 14.0648C16.8398 13.5534 17.1154 12.8597 17.1154 12.1364C17.1154 11.9555 17.1843 11.7821 17.3069 11.6542C17.4295 11.5264 17.5958 11.4545 17.7692 11.4545C17.9426 11.4545 18.109 11.5264 18.2316 11.6542C18.3542 11.7821 18.4231 11.9555 18.4231 12.1364C18.422 13.221 18.0083 14.2609 17.2728 15.0278C16.5374 15.7948 15.5401 16.2261 14.5 16.2273ZM7.30769 8.72727V7.36364H21.6923V8.72727H7.30769Z" fill="#FF800F"/>
</svg>
