<svg width="11" height="16" viewBox="0 0 11 16" fill="none" xmlns="http://www.w3.org/2000/svg">
<path d="M2.6909 16C2.44238 16 2.23253 15.913 2.06134 15.7389C1.89015 15.5654 1.80456 15.3523 1.80456 15.0996V14.1992C1.80456 13.5977 1.95036 13.0287 2.24197 12.4921C2.53358 11.9554 2.95683 11.5076 3.51171 11.1487L2.83877 6.71874H1.43089C1.02359 6.71874 0.683276 6.58008 0.409965 6.30276C0.136655 6.02544 0 5.67938 0 5.2646V2.14834C0 1.74496 0.139312 1.40161 0.417935 1.11829C0.697148 0.834965 1.0348 0.693303 1.43089 0.693303H4.63181V0H8.17363V0.693303H10.876L9.29461 11.1487C9.8495 11.507 10.2725 11.9548 10.5635 12.4921C10.8545 13.0293 11 13.5983 11 14.1992V15.0996C11 15.3523 10.9147 15.5654 10.7441 15.7389C10.5729 15.913 10.3634 16 10.1154 16H2.6909ZM2.70861 5.81835L2.05957 1.5937H1.43089C1.29512 1.5937 1.17028 1.65132 1.05635 1.76657C0.942419 1.88182 0.88575 2.00878 0.88634 2.14744V5.2646C0.88634 5.40266 0.943009 5.52962 1.05635 5.64547C1.16969 5.76132 1.29453 5.81895 1.43089 5.81835H2.70861ZM6.40272 13.9921C6.59693 13.9921 6.75897 13.9261 6.88883 13.794C7.0187 13.662 7.08364 13.4972 7.08364 13.2997C7.08364 13.1022 7.0187 12.9375 6.88883 12.8054C6.75897 12.6733 6.59693 12.6073 6.40272 12.6073C6.20851 12.6073 6.04647 12.6733 5.91661 12.8054C5.78674 12.9375 5.72181 13.1022 5.72181 13.2997C5.72181 13.4972 5.78674 13.662 5.91661 13.794C6.04647 13.9261 6.20851 13.9921 6.40272 13.9921ZM4.33253 10.5976H8.4738L9.83828 1.5937H2.96627L4.33253 10.5976ZM2.6909 15.0996H10.1145V14.1992C10.1145 13.4489 9.85629 12.8111 9.33977 12.2859C8.82326 11.7606 8.19606 11.498 7.45818 11.498H5.34726C4.60938 11.498 3.98218 11.7606 3.46567 12.2859C2.94915 12.8111 2.6909 13.4489 2.6909 14.1992V15.0996Z" fill="black"/>
</svg>
