<svg width="30" height="43" viewBox="0 0 30 43" fill="none" xmlns="http://www.w3.org/2000/svg">
<path d="M13.2569 38.4154C13.0692 36.8306 13.0066 35.1849 12.7564 33.6611C12.3184 31.1011 11.067 29.0896 8.68945 27.8096C6.68727 26.7734 4.6851 25.8591 2.62035 24.8839C1.99467 24.5791 1.30642 24.3353 0.68074 24.0306C0.180196 23.7867 -0.132644 23.3601 0.0550599 22.8115C0.180196 22.4458 0.618172 22.202 0.931013 21.8972C0.993581 21.8363 1.11872 21.8363 1.24385 21.8363C6.18673 20.861 9.50284 17.7524 11.7553 13.6076C13.7575 10.0114 15.3842 6.23236 17.1987 2.5752C17.449 2.02662 17.6993 1.47805 18.0121 1.05138C18.1998 0.807566 18.7003 0.563755 19.0132 0.624707C19.326 0.68566 19.7014 1.05138 19.764 1.41709C19.8891 1.78281 19.8266 2.27043 19.764 2.6971C19.6389 3.55044 19.5137 4.40378 19.326 5.31807C18.5752 8.91428 19.326 12.3886 20.0768 15.8629C20.4522 17.3867 21.3908 18.4839 22.7673 19.2153C24.5192 20.1296 26.3336 20.7391 28.2733 21.1658C28.8989 21.2877 29.7749 21.2877 29.8375 22.202C29.9 23.1772 29.0241 23.421 28.3358 23.6039C25.3326 24.3353 23.2052 26.2858 21.2656 28.5411C19.2635 30.8573 17.6992 33.4782 16.6982 36.343C16.135 37.9278 15.6345 39.5126 15.0714 41.0364C14.9463 41.3411 14.9463 41.6459 14.7586 41.8288C14.5083 42.1335 14.0703 42.5602 13.82 42.4992C13.5072 42.4383 13.2569 41.9507 13.0692 41.5849C12.9441 41.3411 13.0066 41.0364 13.0066 40.7316C13.0066 39.9392 13.0066 39.1468 13.0066 38.4154C13.1318 38.4154 13.1944 38.4154 13.2569 38.4154Z" fill="#12074B"/>
</svg>
