<svg width="85" height="85" viewBox="0 0 85 85" fill="none" xmlns="http://www.w3.org/2000/svg">
<path fill-rule="evenodd" clip-rule="evenodd" d="M57.5007 30.6673C57.5007 34.734 55.8852 38.6341 53.0096 41.5096C50.1341 44.3852 46.234 46.0007 42.1673 46.0007C38.1007 46.0007 34.2006 44.3852 31.325 41.5096C28.4495 38.6341 26.834 34.734 26.834 30.6673C26.834 26.6007 28.4495 22.7006 31.325 19.825C34.2006 16.9495 38.1007 15.334 42.1673 15.334C46.234 15.334 50.1341 16.9495 53.0096 19.825C55.8852 22.7006 57.5007 26.6007 57.5007 30.6673ZM49.834 30.6673C49.834 32.7006 49.0262 34.6507 47.5885 36.0885C46.1507 37.5262 44.2006 38.334 42.1673 38.334C40.134 38.334 38.1839 37.5262 36.7462 36.0885C35.3084 34.6507 34.5007 32.7006 34.5007 30.6673C34.5007 28.634 35.3084 26.6839 36.7462 25.2462C38.1839 23.8084 40.134 23.0007 42.1673 23.0007C44.2006 23.0007 46.1507 23.8084 47.5885 25.2462C49.0262 26.6839 49.834 28.634 49.834 30.6673Z" fill="#E7906B"/>
<path fill-rule="evenodd" clip-rule="evenodd" d="M42.1667 0C18.8792 0 0 18.8792 0 42.1667C0 65.4542 18.8792 84.3333 42.1667 84.3333C65.4542 84.3333 84.3333 65.4542 84.3333 42.1667C84.3333 18.8792 65.4542 0 42.1667 0ZM7.66667 42.1667C7.66667 50.1783 10.3998 57.5537 14.9807 63.411C18.1985 59.1872 22.3489 55.764 27.108 53.4088C31.867 51.0536 37.1059 49.8299 42.4158 49.8333C47.6575 49.8272 52.8313 51.0182 57.5427 53.3154C62.2541 55.6127 66.3786 58.9555 69.6018 63.089C72.9232 58.7328 75.1595 53.6483 76.1258 48.2563C77.092 42.8642 76.7603 37.3195 75.1582 32.0811C73.5561 26.8427 70.7297 22.061 66.9127 18.1318C63.0957 14.2026 58.398 11.2388 53.2081 9.48562C48.0183 7.73244 42.4856 7.24029 37.0678 8.0499C31.65 8.8595 26.5029 10.9476 22.0523 14.1414C17.6017 17.3352 13.9756 21.5428 11.474 26.4163C8.97248 31.2897 7.66736 36.6887 7.66667 42.1667ZM42.1667 76.6667C34.2466 76.6795 26.5656 73.9548 20.424 68.954C22.8958 65.4144 26.1862 62.5244 30.0153 60.5301C33.8443 58.5358 38.0986 57.4963 42.4158 57.5C46.6792 57.4963 50.8819 58.5099 54.6748 60.4567C58.4677 62.4035 61.7413 65.2272 64.2237 68.6933C58.0346 73.8568 50.2268 76.6793 42.1667 76.6667Z" fill="#E7906B"/>
</svg>
