<svg width="55" height="55" viewBox="0 0 55 55" fill="none" xmlns="http://www.w3.org/2000/svg">
<path d="M42.9006 33.8245C43.7027 31.8766 44.1381 29.7912 44.1381 27.4995C44.1381 25.8495 43.8861 24.2683 43.4506 22.8016C41.9611 23.1454 40.4027 23.3287 38.7757 23.3287C35.4435 23.3323 32.1593 22.5347 29.2 21.0032C26.2406 19.4716 23.6929 17.2511 21.7715 14.5287C19.7181 19.5033 15.84 23.5043 10.9319 25.712C10.8402 26.2849 10.8402 26.9037 10.8402 27.4995C10.8402 29.6874 11.2712 31.8538 12.1084 33.8752C12.9457 35.8965 14.1729 37.7332 15.72 39.2802C18.8444 42.4046 23.082 44.1599 27.5006 44.1599C29.9069 44.1599 32.2215 43.6329 34.3069 42.6933C35.6131 45.1912 36.209 46.4287 36.1631 46.4287C32.4048 47.6891 29.4944 48.3079 27.5006 48.3079C21.9548 48.3079 16.6611 46.1308 12.7652 42.212C10.3935 39.8514 8.63169 36.9492 7.6319 33.7558H4.58398V23.3287H7.0819C7.8387 19.6449 9.57865 16.2346 12.1171 13.4598C14.6556 10.685 17.8979 8.6492 21.5 7.56834C25.1021 6.48748 28.9296 6.40192 32.5764 7.32072C36.2232 8.23953 39.5532 10.1284 42.2132 12.787C45.1002 15.6644 47.0699 19.3327 47.8736 23.3287H50.4173V33.7558H50.2798L42.1215 41.2495L29.9756 39.8745V36.0474H41.0444L42.9006 33.8245ZM21.2444 26.9724C21.9319 26.9724 22.5965 27.2474 23.0777 27.7516C23.5614 28.2392 23.8328 28.8982 23.8328 29.5849C23.8328 30.2717 23.5614 30.9307 23.0777 31.4183C22.5965 31.8995 21.9319 32.1745 21.2444 32.1745C19.8007 32.1745 18.6319 31.0287 18.6319 29.5849C18.6319 28.1412 19.8007 26.9724 21.2444 26.9724ZM33.734 26.9724C35.1777 26.9724 36.3236 28.1412 36.3236 29.5849C36.3236 31.0287 35.1777 32.1745 33.734 32.1745C32.2902 32.1745 31.1215 31.0287 31.1215 29.5849C31.1215 28.8921 31.3967 28.2276 31.8867 27.7376C32.3766 27.2477 33.0411 26.9724 33.734 26.9724Z" fill="#E7906B"/>
</svg>
