<svg width="77" height="82" viewBox="0 0 77 82" fill="none" xmlns="http://www.w3.org/2000/svg">
<path d="M58.3757 21.0135H70.9197C71.6784 21.0142 72.4098 21.2795 72.9722 21.758C73.5346 22.2364 73.888 22.894 73.9639 23.6034L75.832 41.1569H69.6702L68.139 26.7687H58.3757V35.4016C58.3757 36.1648 58.0531 36.8967 57.4788 37.4364C56.9044 37.9761 56.1255 38.2792 55.3132 38.2792C54.501 38.2792 53.7221 37.9761 53.1477 37.4364C52.5734 36.8967 52.2507 36.1648 52.2507 35.4016V26.7687H27.7507V35.4016C27.7507 36.1648 27.4281 36.8967 26.8538 37.4364C26.2794 37.9761 25.5005 38.2792 24.6882 38.2792C23.876 38.2792 23.0971 37.9761 22.5227 37.4364C21.9484 36.8967 21.6257 36.1648 21.6257 35.4016V26.7687H11.8564L6.95637 72.8107H40.0007V78.566H3.56924C3.1415 78.5656 2.71858 78.481 2.32775 78.3177C1.93691 78.1543 1.58683 77.9159 1.30004 77.6177C1.01326 77.3195 0.796136 76.9681 0.662668 76.5863C0.529199 76.2044 0.482342 75.8005 0.525117 75.4006L6.03762 23.6034C6.11348 22.894 6.46685 22.2364 7.02926 21.758C7.59166 21.2795 8.32306 21.0142 9.08174 21.0135H21.6257V19.0049C21.6257 9.02531 29.8087 0.870117 40.0007 0.870117C50.1927 0.870117 58.3757 9.02531 58.3757 19.0049V21.0192V21.0135ZM52.2507 21.0135V19.0049C52.2507 12.1331 46.726 6.62537 40.0007 6.62537C33.2755 6.62537 27.7507 12.1331 27.7507 19.0049V21.0192H52.2507V21.0135ZM71.5261 64.5232L64.5007 57.9277V78.566C64.5007 79.3292 64.1781 80.0611 63.6038 80.6008C63.0294 81.1404 62.2505 81.4436 61.4382 81.4436C60.626 81.4436 59.8471 81.1404 59.2727 80.6008C58.6984 80.0611 58.3757 79.3292 58.3757 78.566V57.9277L51.3565 64.5232C51.074 64.798 50.736 65.0172 50.3624 65.1681C49.9888 65.3189 49.5869 65.3983 49.1803 65.4016C48.7736 65.4049 48.3704 65.3321 47.994 65.1874C47.6176 65.0427 47.2757 64.829 46.9882 64.5588C46.7006 64.2887 46.4732 63.9674 46.3192 63.6137C46.1652 63.2601 46.0878 62.8811 46.0913 62.4991C46.0948 62.117 46.1793 61.7394 46.3398 61.3883C46.5003 61.0372 46.7336 60.7197 47.0261 60.4542L59.2761 48.9437C59.8504 48.4042 60.6292 48.1012 61.4413 48.1012C62.2534 48.1012 63.0322 48.4042 63.6065 48.9437L75.8565 60.4542C76.149 60.7197 76.3823 61.0372 76.5428 61.3883C76.7033 61.7394 76.7878 62.117 76.7913 62.4991C76.7949 62.8811 76.7174 63.2601 76.5634 63.6137C76.4094 63.9674 76.182 64.2887 75.8944 64.5588C75.6069 64.829 75.265 65.0427 74.8886 65.1874C74.5122 65.3321 74.109 65.4049 73.7023 65.4016C73.2957 65.3983 72.8938 65.3189 72.5202 65.1681C72.1466 65.0172 71.8086 64.798 71.5261 64.5232Z" fill="#E7906B"/>
</svg>
