<svg width="75" height="65" viewBox="0 0 75 65" fill="none" xmlns="http://www.w3.org/2000/svg">
<path d="M23.4614 0H51.5386L56.6523 10.2632H75V65H0V10.2632H18.3477L23.4614 0ZM27.675 6.84211L22.5614 17.1053H6.81818V58.1579H68.1818V17.1053H52.4386L47.325 6.84211H27.675ZM37.5 25.6579C36.1569 25.6579 34.827 25.9234 33.5862 26.4391C32.3454 26.9549 31.2179 27.7109 30.2682 28.6639C29.3185 29.6169 28.5652 30.7483 28.0512 31.9935C27.5373 33.2387 27.2727 34.5733 27.2727 35.9211C27.2727 37.2688 27.5373 38.6034 28.0512 39.8486C28.5652 41.0938 29.3185 42.2252 30.2682 43.1782C31.2179 44.1312 32.3454 44.8872 33.5862 45.403C34.827 45.9187 36.1569 46.1842 37.5 46.1842C40.2124 46.1842 42.8138 45.1029 44.7318 43.1782C46.6498 41.2535 47.7273 38.643 47.7273 35.9211C47.7273 33.1991 46.6498 30.5886 44.7318 28.6639C42.8138 26.7392 40.2124 25.6579 37.5 25.6579ZM20.4545 35.9211C20.4545 31.3845 22.2504 27.0337 25.447 23.8258C28.6437 20.6179 32.9793 18.8158 37.5 18.8158C42.0207 18.8158 46.3563 20.6179 49.553 23.8258C52.7496 27.0337 54.5455 31.3845 54.5455 35.9211C54.5455 40.4577 52.7496 44.8084 49.553 48.0163C46.3563 51.2242 42.0207 53.0263 37.5 53.0263C32.9793 53.0263 28.6437 51.2242 25.447 48.0163C22.2504 44.8084 20.4545 40.4577 20.4545 35.9211Z" fill="#E7906B"/>
</svg>
