<svg width="56" height="56" viewBox="0 0 56 56" fill="none" xmlns="http://www.w3.org/2000/svg">
<path d="M44.9174 43.166H49.5841C50.0275 43.1662 50.4543 43.3346 50.7783 43.6373C51.1023 43.94 51.2993 44.3544 51.3295 44.7967C51.3597 45.2391 51.2209 45.6764 50.9411 46.0204C50.6613 46.3643 50.2613 46.5892 49.8221 46.6497L49.5841 46.666H46.6674V49.5827C46.6673 50.0261 46.4989 50.4529 46.1962 50.7769C45.8935 51.1008 45.4791 51.2979 45.0367 51.3281C44.5944 51.3583 44.157 51.2195 43.8131 50.9397C43.4691 50.6599 43.2442 50.2599 43.1838 49.8207L43.1674 49.5827V44.916C43.1674 44.4931 43.3206 44.0846 43.5986 43.7658C43.8765 43.4471 44.2605 43.2399 44.6794 43.1824L44.9174 43.166ZM6.41744 43.166H11.0841C11.507 43.166 11.9156 43.3192 12.2343 43.5971C12.553 43.8751 12.7603 44.2591 12.8178 44.678L12.8341 44.916V49.5827C12.834 50.0261 12.6655 50.4529 12.3628 50.7769C12.0601 51.1008 11.6457 51.2979 11.2034 51.3281C10.761 51.3583 10.3237 51.2195 9.97974 50.9397C9.63579 50.6599 9.41087 50.2599 9.35043 49.8207L9.3341 49.5827V46.666H6.41744C5.97405 46.6659 5.54724 46.4974 5.22325 46.1947C4.89927 45.892 4.70226 45.4777 4.67204 45.0353C4.64182 44.5929 4.78064 44.1556 5.06044 43.8117C5.34025 43.4677 5.74019 43.2428 6.17944 43.1824L6.41744 43.166ZM39.0841 12.8397C39.5482 12.8397 39.9934 13.0241 40.3215 13.3522C40.6497 13.6804 40.8341 14.1256 40.8341 14.5897V41.416C40.8341 41.8801 40.6497 42.3253 40.3215 42.6535C39.9934 42.9816 39.5482 43.166 39.0841 43.166H16.9221C16.458 43.166 16.0129 42.9816 15.6847 42.6535C15.3565 42.3253 15.1721 41.8801 15.1721 41.416V14.5897C15.1721 14.1256 15.3565 13.6804 15.6847 13.3522C16.0129 13.0241 16.458 12.8397 16.9221 12.8397H39.0841ZM37.3341 16.3397H18.6721V39.666H37.3388L37.3341 16.3397ZM22.7508 29.1987H28.5888C29.0322 29.1988 29.459 29.3673 29.7829 29.67C30.1069 29.9727 30.3039 30.387 30.3342 30.8294C30.3644 31.2718 30.2256 31.7091 29.9458 32.053C29.666 32.397 29.266 32.6219 28.8268 32.6824L28.5888 32.6987H22.7508C22.3074 32.6985 21.8806 32.5301 21.5566 32.2274C21.2326 31.9247 21.0356 31.5103 21.0054 31.068C20.9752 30.6256 21.114 30.1883 21.3938 29.8443C21.6736 29.5004 22.0735 29.2755 22.5128 29.215L22.7508 29.1987ZM22.7508 22.166H33.2554C33.6988 22.1662 34.1256 22.3346 34.4496 22.6373C34.7736 22.94 34.9706 23.3544 35.0008 23.7967C35.031 24.2391 34.8922 24.6764 34.6124 25.0204C34.3326 25.3643 33.9327 25.5892 33.4934 25.6497L33.2554 25.666H22.7508C22.3074 25.6659 21.8806 25.4974 21.5566 25.1947C21.2326 24.892 21.0356 24.4777 21.0054 24.0353C20.9752 23.5929 21.114 23.1556 21.3938 22.8117C21.6736 22.4677 22.0735 22.2428 22.5128 22.1824L22.7508 22.166ZM11.0841 4.66602C11.507 4.66603 11.9156 4.81918 12.2343 5.09714C12.553 5.3751 12.7603 5.75906 12.8178 6.17802L12.8341 6.41602V11.0827C12.8341 11.5056 12.6809 11.9141 12.403 12.2329C12.125 12.5516 11.7411 12.7588 11.3221 12.8163L11.0841 12.8327H6.41744C5.97405 12.8325 5.54724 12.6641 5.22325 12.3614C4.89927 12.0587 4.70226 11.6443 4.67204 11.202C4.64182 10.7596 4.78064 10.3223 5.06044 9.97832C5.34025 9.63437 5.74019 9.40945 6.17944 9.34902L6.41744 9.33268H9.3341V6.41602C9.3341 5.95189 9.51848 5.50677 9.84666 5.17858C10.1749 4.85039 10.62 4.66602 11.0841 4.66602ZM44.9174 4.66602C45.3403 4.66603 45.7489 4.81918 46.0676 5.09714C46.3863 5.3751 46.5936 5.75906 46.6511 6.17802L46.6674 6.41602V9.33268H49.5841C50.0275 9.33282 50.4543 9.50125 50.7783 9.80395C51.1023 10.1067 51.2993 10.521 51.3295 10.9634C51.3597 11.4058 51.2209 11.8431 50.9411 12.187C50.6613 12.531 50.2613 12.7559 49.8221 12.8163L49.5841 12.8327H44.9174C44.4945 12.8327 44.086 12.6795 43.7673 12.4016C43.4486 12.1236 43.2413 11.7396 43.1838 11.3207L43.1674 11.0827V6.41602C43.1674 5.95189 43.3518 5.50677 43.68 5.17858C44.0082 4.85039 44.4533 4.66602 44.9174 4.66602Z" fill="#E7906B"/>
</svg>
