<svg width="48" height="48" viewBox="0 0 48 48" fill="none" xmlns="http://www.w3.org/2000/svg">
<path fill-rule="evenodd" clip-rule="evenodd" d="M29.0001 18C35.0752 18 40.0001 22.9249 40.0001 29C40.0001 31.315 39.285 33.4629 38.0636 35.235L43.6777 40.8492L40.8493 43.6777L35.2352 38.0635C33.463 39.2849 31.3151 40 29.0001 40C22.9249 40 18.0001 35.0752 18.0001 29C18.0001 22.9249 22.9249 18 29.0001 18ZM29.0001 22C25.1341 22 22.0001 25.1341 22.0001 29C22.0001 32.866 25.1342 36 29.0001 36C32.8661 36 36.0001 32.8659 36.0001 29C36.0001 25.134 32.866 22 29.0001 22ZM16.0379 27.9999C16.0127 28.3301 16.0001 28.6634 16 29C16 30.0326 16.1204 31.0371 16.3478 32.0002L4 32V28L16.0379 27.9999ZM12.0002 6V26H6.00006V6H12.0002ZM20.0001 14L19.9998 19.6193C18.2252 21.3226 16.9327 23.5245 16.348 25.9999L14.0001 26V14H20.0001ZM28.0001 10V16.0379C25.8648 16.1991 23.803 16.8883 22.0001 18.0437V9.99994L28.0001 10ZM36.0001 12L36.0002 18.0437C34.1972 16.8883 32.1354 16.1991 30.0002 16.0379V12H36.0001Z" fill="#E7906B"/>
</svg>
