<svg width="54" height="54" viewBox="0 0 54 54" fill="none" xmlns="http://www.w3.org/2000/svg">
<path d="M11.9933 7.36182C13.3972 6.86119 14.9143 6.76924 16.3684 7.09666C17.8224 7.42408 19.1537 8.15742 20.2075 9.21146C21.2613 10.2655 21.9943 11.5969 22.3214 13.0511C22.6485 14.5052 22.5562 16.0223 22.0553 17.4261L46.4566 41.8273L41.682 46.6018L17.2808 22.2006C15.8767 22.7015 14.3592 22.7935 12.9049 22.4661C11.4505 22.1386 10.119 21.405 9.06506 20.3506C8.01115 19.2963 7.27817 17.9644 6.95135 16.5099C6.62452 15.0554 6.71726 13.538 7.2188 12.1341L12.2498 17.1673C12.8863 17.7821 13.7389 18.1223 14.6238 18.1146C15.5087 18.1069 16.3552 17.752 16.9809 17.1262C17.6067 16.5005 17.9616 15.654 17.9693 14.769C17.977 13.8841 17.6368 13.0316 17.022 12.3951L11.9933 7.36182ZM35.319 11.5986L42.4785 7.62057L45.66 10.8043L41.682 17.9638L37.704 18.7581L32.934 23.5303L29.7503 20.3488L34.5225 15.5766L35.319 11.5986ZM19.4093 29.0991L24.1815 33.8736L13.044 45.0111C12.4299 45.6195 11.6057 45.969 10.7414 45.9876C9.87705 46.0062 9.03857 45.6924 8.39882 45.1109C7.75907 44.5295 7.36684 43.7247 7.30302 42.8626C7.2392 42.0004 7.50864 41.1466 8.0558 40.4773L8.27405 40.2366L19.4093 29.0991Z" fill="#E7906B"/>
</svg>
