<svg width="94" height="94" viewBox="0 0 94 94" fill="none" xmlns="http://www.w3.org/2000/svg">
<path d="M61.6875 50.916C61.6875 50.1369 61.378 49.3898 60.8271 48.8389C60.2762 48.288 59.5291 47.9785 58.75 47.9785H35.25C34.4709 47.9785 33.7238 48.288 33.1729 48.8389C32.622 49.3898 32.3125 50.1369 32.3125 50.916C32.3125 51.6951 32.622 52.4423 33.1729 52.9931C33.7238 53.544 34.4709 53.8535 35.25 53.8535H58.75C59.5291 53.8535 60.2762 53.544 60.8271 52.9931C61.378 52.4423 61.6875 51.6951 61.6875 50.916ZM61.6875 66.5827C61.6875 65.8036 61.378 65.0564 60.8271 64.5056C60.2762 63.9547 59.5291 63.6452 58.75 63.6452H35.25C34.4709 63.6452 33.7238 63.9547 33.1729 64.5056C32.622 65.0564 32.3125 65.8036 32.3125 66.5827C32.3125 67.3618 32.622 68.1089 33.1729 68.6598C33.7238 69.2107 34.4709 69.5202 35.25 69.5202H58.75C59.5291 69.5202 60.2762 69.2107 60.8271 68.6598C61.378 68.1089 61.6875 67.3618 61.6875 66.5827Z" fill="#E7906B"/>
<path fill-rule="evenodd" clip-rule="evenodd" d="M27.4173 8.8125C24.5607 8.8125 21.8211 9.94728 19.8012 11.9672C17.7813 13.9871 16.6465 16.7267 16.6465 19.5833V74.4167C16.6465 77.2733 17.7813 80.0129 19.8012 82.0328C21.8211 84.0527 24.5607 85.1875 27.4173 85.1875H66.584C69.4406 85.1875 72.1802 84.0527 74.2001 82.0328C76.22 80.0129 77.3548 77.2733 77.3548 74.4167V31.208C77.3548 29.7157 76.8692 28.2666 75.9683 27.0759L64.2262 11.5346C63.5873 10.689 62.761 10.0032 61.8123 9.53085C60.8636 9.05853 59.8183 8.81264 58.7585 8.8125H27.4173ZM22.5215 19.5833C22.5215 16.8808 24.7148 14.6875 27.4173 14.6875H55.8132V31.9091C55.8132 33.5306 57.1292 34.8466 58.7507 34.8466H71.4798V74.4167C71.4798 77.1192 69.2865 79.3125 66.584 79.3125H27.4173C24.7148 79.3125 22.5215 77.1192 22.5215 74.4167V19.5833Z" fill="#E7906B"/>
</svg>
