<svg width="36" height="36" viewBox="0 0 36 36" fill="none" xmlns="http://www.w3.org/2000/svg">
<circle cx="18" cy="18" r="18" fill="white"/>
<path d="M25.7484 26.8001C26.9082 26.8001 27.8484 25.8599 27.8484 24.7001C27.8484 23.5403 26.9082 22.6001 25.7484 22.6001C24.5886 22.6001 23.6484 23.5403 23.6484 24.7001C23.6484 25.8599 24.5886 26.8001 25.7484 26.8001Z" stroke="#E7906B" stroke-width="1.5" stroke-linecap="round" stroke-linejoin="round"/>
<path d="M15.2484 26.8001C16.4082 26.8001 17.3484 25.8599 17.3484 24.7001C17.3484 23.5403 16.4082 22.6001 15.2484 22.6001C14.0886 22.6001 13.1484 23.5403 13.1484 24.7001C13.1484 25.8599 14.0886 26.8001 15.2484 26.8001Z" stroke="#E7906B" stroke-width="1.5" stroke-linecap="round" stroke-linejoin="round"/>
<path d="M13.15 24.6706C11.9981 24.6139 11.281 24.4427 10.7686 23.9314C10.2562 23.42 10.0861 22.7018 10.0294 21.55M17.35 24.7H23.65M27.85 24.6706C29.0018 24.6139 29.719 24.4427 30.2314 23.9314C31 23.1617 31 21.9248 31 19.45V17.35H26.065C25.2827 17.35 24.8921 17.35 24.5761 17.2471C24.2609 17.1447 23.9745 16.9691 23.7402 16.7348C23.5059 16.5005 23.3303 16.2141 23.2279 15.8989C23.125 15.5828 23.125 15.1922 23.125 14.41C23.125 13.2371 23.125 12.6512 22.9706 12.1766C22.817 11.7039 22.5537 11.2742 22.2022 10.9228C21.8508 10.5713 21.4211 10.308 20.9483 10.1543C20.4737 10 19.8878 10 18.715 10H10M10 14.2H16.3M10 17.35H14.2" stroke="#E7906B" stroke-width="1.5" stroke-linecap="round" stroke-linejoin="round"/>
<path d="M23.125 12.1001H25.037C26.5658 12.1001 27.3292 12.1001 27.9508 12.4718C28.5735 12.8424 28.9357 13.5155 29.6602 14.8616L31 17.3501" stroke="#E7906B" stroke-width="1.5" stroke-linecap="round" stroke-linejoin="round"/>
</svg>
