<svg width="33" height="33" viewBox="0 0 33 33" fill="none" xmlns="http://www.w3.org/2000/svg">
<path d="M32.9134 2.99067C32.9134 2.99067 32.9134 3.00541 32.9134 3.01278L24.3388 31.2951C24.209 31.7545 23.9419 32.1632 23.5732 32.4663C23.2045 32.7695 22.7519 32.9526 22.2762 32.9911C22.2084 32.997 22.1406 33 22.0729 33C21.627 33.0014 21.1901 32.8752 20.8137 32.6363C20.4372 32.3974 20.137 32.0558 19.9484 31.6517L14.5856 20.6447C14.5319 20.5344 14.514 20.4101 14.5343 20.2891C14.5547 20.1681 14.6122 20.0565 14.699 19.9698L23.2324 11.4353C23.4441 11.2124 23.5604 10.9157 23.5564 10.6083C23.5525 10.3009 23.4286 10.0072 23.2113 9.78984C22.994 9.57247 22.7003 9.44861 22.393 9.44468C22.0856 9.44074 21.7889 9.55704 21.5661 9.76877L13.0283 18.3033C12.9416 18.3901 12.83 18.4477 12.709 18.468C12.5881 18.4883 12.4638 18.4704 12.3535 18.4168L1.33764 13.0547C0.906872 12.848 0.549073 12.5153 0.311654 12.1006C0.0742355 11.6859 -0.0315948 11.2089 0.00818781 10.7327C0.0479705 10.2566 0.231488 9.80371 0.534421 9.4342C0.837354 9.0647 1.2454 8.79598 1.70449 8.66365L29.983 0.0878761H30.0051C30.4078 -0.0252572 30.8332 -0.0292233 31.2379 0.0763846C31.6426 0.181992 32.0119 0.393372 32.3079 0.688836C32.6039 0.984299 32.816 1.35321 32.9224 1.75772C33.0288 2.16222 33.0257 2.58776 32.9134 2.99067Z" fill="#E7906B"/>
</svg>
