<svg width="10" height="11" viewBox="0 0 10 11" fill="none" xmlns="http://www.w3.org/2000/svg">
<path d="M1.86857 11C1.54857 11 1.27619 10.8903 1.05143 10.6708C0.826667 10.4513 0.714286 10.1855 0.714286 9.87349V1.23462H0V0.537096H2.85714V0H7.14286V0.537096H10V1.23462H9.28571V9.87349C9.28571 10.1944 9.17571 10.4624 8.95571 10.6777C8.73571 10.893 8.46095 11.0005 8.13143 11H1.86857ZM8.57143 1.23462H1.42857V9.87349C1.42857 9.99858 1.46976 10.1014 1.55214 10.1818C1.63452 10.2622 1.74 10.3025 1.86857 10.3025H8.13214C8.24167 10.3025 8.34238 10.2578 8.43429 10.1685C8.52619 10.0793 8.57191 9.98068 8.57143 9.8728V1.23462ZM3.43429 8.90742H4.14857V2.62968H3.43429V8.90742ZM5.85143 8.90742H6.56571V2.62968H5.85143V8.90742Z" fill="#212429"/>
</svg>
