<svg width="9" height="10" viewBox="0 0 9 10" fill="none" xmlns="http://www.w3.org/2000/svg">
<path d="M8.625 1.53846H6.75V1.15385C6.75 0.847827 6.63147 0.554342 6.4205 0.337954C6.20952 0.121566 5.92337 0 5.625 0H3.375C3.07663 0 2.79048 0.121566 2.5795 0.337954C2.36853 0.554342 2.25 0.847827 2.25 1.15385V1.53846H0.375C0.275544 1.53846 0.180161 1.57898 0.109835 1.65111C0.0395089 1.72324 0 1.82107 0 1.92308C0 2.02508 0.0395089 2.12291 0.109835 2.19504C0.180161 2.26717 0.275544 2.30769 0.375 2.30769H0.75V9.23077C0.75 9.43478 0.829018 9.63044 0.96967 9.7747C1.11032 9.91896 1.30109 10 1.5 10H7.5C7.69891 10 7.88968 9.91896 8.03033 9.7747C8.17098 9.63044 8.25 9.43478 8.25 9.23077V2.30769H8.625C8.72446 2.30769 8.81984 2.26717 8.89017 2.19504C8.96049 2.12291 9 2.02508 9 1.92308C9 1.82107 8.96049 1.72324 8.89017 1.65111C8.81984 1.57898 8.72446 1.53846 8.625 1.53846ZM3.75 7.30769C3.75 7.4097 3.71049 7.50753 3.64017 7.57966C3.56984 7.65179 3.47446 7.69231 3.375 7.69231C3.27554 7.69231 3.18016 7.65179 3.10984 7.57966C3.03951 7.50753 3 7.4097 3 7.30769V4.23077C3 4.12876 3.03951 4.03093 3.10984 3.95881C3.18016 3.88668 3.27554 3.84615 3.375 3.84615C3.47446 3.84615 3.56984 3.88668 3.64017 3.95881C3.71049 4.03093 3.75 4.12876 3.75 4.23077V7.30769ZM6 7.30769C6 7.4097 5.96049 7.50753 5.89017 7.57966C5.81984 7.65179 5.72446 7.69231 5.625 7.69231C5.52554 7.69231 5.43016 7.65179 5.35983 7.57966C5.28951 7.50753 5.25 7.4097 5.25 7.30769V4.23077C5.25 4.12876 5.28951 4.03093 5.35983 3.95881C5.43016 3.88668 5.52554 3.84615 5.625 3.84615C5.72446 3.84615 5.81984 3.88668 5.89017 3.95881C5.96049 4.03093 6 4.12876 6 4.23077V7.30769ZM6 1.53846H3V1.15385C3 1.05184 3.03951 0.954011 3.10984 0.881882C3.18016 0.809753 3.27554 0.769231 3.375 0.769231H5.625C5.72446 0.769231 5.81984 0.809753 5.89017 0.881882C5.96049 0.954011 6 1.05184 6 1.15385V1.53846Z" fill="#E7906B"/>
</svg>
