<svg width="24" height="24" viewBox="0 0 24 24" fill="none" xmlns="http://www.w3.org/2000/svg">
<g clip-path="url(#clip0_5889_33940)">
<path d="M7.48047 5.65003L10.5805 3.25003C10.9805 2.85003 11.8805 2.65003 12.4805 2.65003H16.2805C17.4805 2.65003 18.7805 3.55003 19.0805 4.75003L21.4805 12.05C21.9805 13.45 21.0805 14.65 19.5805 14.65H15.5805C14.9805 14.65 14.4805 15.15 14.5805 15.85L15.0805 19.05C15.2805 19.95 14.6805 20.95 13.7805 21.25C12.9805 21.55 11.9805 21.15 11.5805 20.55L7.48047 14.45" stroke="#212429" stroke-width="1.5" stroke-miterlimit="10"/>
<path d="M2.37891 5.6501V15.4501C2.37891 16.8501 2.97891 17.3501 4.37891 17.3501H5.37891C6.77891 17.3501 7.37891 16.8501 7.37891 15.4501V5.6501C7.37891 4.2501 6.77891 3.7501 5.37891 3.7501H4.37891C2.97891 3.7501 2.37891 4.2501 2.37891 5.6501Z" stroke="#212429" stroke-width="1.5" stroke-linecap="round" stroke-linejoin="round"/>
</g>
<defs>
<clipPath id="clip0_5889_33940">
<rect width="24" height="24" fill="white" transform="matrix(1 0 0 -1 0 24)"/>
</clipPath>
</defs>
</svg>
