<svg width="30" height="20" viewBox="0 0 30 20" fill="none" xmlns="http://www.w3.org/2000/svg">
<rect x="0.5" y="0.5" width="29" height="19" rx="5.5" fill="white" stroke="#D9D9D9"/>
<path fill-rule="evenodd" clip-rule="evenodd" d="M9.10569 13.5485H7.28827L5.92543 8.49356C5.86074 8.26104 5.7234 8.05547 5.52136 7.95859C5.01716 7.71511 4.46157 7.52134 3.85547 7.42361V7.229H6.78319C7.18725 7.229 7.49031 7.52134 7.54081 7.86086L8.24793 11.5071L10.0645 7.229H11.8314L9.10569 13.5485ZM12.8415 13.5485H11.1251L12.5385 7.229H14.2549L12.8415 13.5485ZM16.4755 8.97968C16.526 8.63932 16.8291 8.4447 17.1826 8.4447C17.7382 8.39584 18.3434 8.49357 18.8485 8.7362L19.1516 7.37559C18.6465 7.18098 18.0909 7.08325 17.5867 7.08325C15.9208 7.08325 14.7086 7.95859 14.7086 9.17345C14.7086 10.0977 15.5672 10.5829 16.1733 10.8753C16.8291 11.1668 17.0816 11.3614 17.0311 11.6529C17.0311 12.0901 16.526 12.2847 16.0218 12.2847C15.4157 12.2847 14.8096 12.139 14.2549 11.8955L13.9518 13.257C14.5579 13.4996 15.2137 13.5973 15.8198 13.5973C17.6877 13.6453 18.8485 12.7709 18.8485 11.4583C18.8485 9.80531 16.4755 9.70843 16.4755 8.97968ZM24.8555 13.5485L23.4926 7.229H22.0288C21.7257 7.229 21.4227 7.42361 21.3216 7.71511L18.798 13.5485H20.5649L20.9176 12.6251H23.0886L23.2906 13.5485H24.8555ZM22.2813 8.93082L22.7855 11.3125H21.3722L22.2813 8.93082Z" fill="#172B85"/>
</svg>
