<svg width="26" height="26" viewBox="0 0 26 26" fill="none" xmlns="http://www.w3.org/2000/svg">
<path d="M21.9375 6.5H5.6875C5.47201 6.5 5.26535 6.4144 5.11298 6.26202C4.9606 6.10965 4.875 5.90299 4.875 5.6875C4.875 5.47201 4.9606 5.26535 5.11298 5.11298C5.26535 4.9606 5.47201 4.875 5.6875 4.875H19.5C19.7155 4.875 19.9222 4.7894 20.0745 4.63702C20.2269 4.48465 20.3125 4.27799 20.3125 4.0625C20.3125 3.84701 20.2269 3.64035 20.0745 3.48798C19.9222 3.3356 19.7155 3.25 19.5 3.25H5.6875C5.04103 3.25 4.42105 3.50681 3.96393 3.96393C3.50681 4.42105 3.25 5.04103 3.25 5.6875V18.6875C3.25 19.334 3.50681 19.954 3.96393 20.4111C4.42105 20.8682 5.04103 21.125 5.6875 21.125H21.9375C22.3685 21.125 22.7818 20.9538 23.0865 20.649C23.3913 20.3443 23.5625 19.931 23.5625 19.5V8.125C23.5625 7.69402 23.3913 7.2807 23.0865 6.97595C22.7818 6.67121 22.3685 6.5 21.9375 6.5ZM18.2812 14.625C18.0402 14.625 17.8046 14.5535 17.6041 14.4196C17.4037 14.2857 17.2475 14.0953 17.1553 13.8726C17.063 13.6499 17.0389 13.4049 17.0859 13.1685C17.1329 12.9321 17.249 12.7149 17.4195 12.5445C17.5899 12.374 17.8071 12.2579 18.0435 12.2109C18.2799 12.1639 18.5249 12.188 18.7476 12.2803C18.9703 12.3725 19.1607 12.5287 19.2946 12.7291C19.4285 12.9296 19.5 13.1652 19.5 13.4062C19.5 13.7295 19.3716 14.0395 19.143 14.268C18.9145 14.4966 18.6045 14.625 18.2812 14.625Z" fill="#FF800F"/>
</svg>
