<svg width="265" height="253" viewBox="0 0 265 253" fill="none" xmlns="http://www.w3.org/2000/svg">
<g clip-path="url(#clip0_7153_19302)">
<path d="M137.276 -5.08275C135.991 -6.25858 134.28 -6.91504 132.5 -6.91504C130.72 -6.91504 129.009 -6.25858 127.724 -5.08275C112.493 8.84806 90.8177 16.4064 72.3119 20.4281C63.1473 22.4099 54.982 23.4852 49.1133 24.065C46.0766 24.3624 43.0315 24.5768 39.9819 24.708H39.8604C38.059 24.7493 36.346 25.4616 35.0874 26.6928C33.8288 27.9239 33.1245 29.5762 33.125 31.2965V81.3695C33.125 106.864 39.9874 132.275 55.7494 153.975C71.5445 175.723 95.9963 193.343 130.441 203.616C131.782 204.016 133.218 204.016 134.559 203.616C203.94 182.917 231.875 132.744 231.875 82.6872V31.2965C231.876 29.5762 231.171 27.9239 229.913 26.6928C228.654 25.4616 226.941 24.7493 225.14 24.708H225.018L224.576 24.6922L222.766 24.6026C220.469 24.4706 218.175 24.2913 215.887 24.065C208.085 23.2907 200.339 22.0763 192.688 20.4281C174.177 16.4064 152.502 8.84806 137.276 -5.08275Z" fill="url(#paint0_radial_7153_19302)"/>
<path d="M137.151 -5.16771C135.866 -6.34354 134.155 -7 132.375 -7C130.595 -7 128.884 -6.34354 127.599 -5.16771C112.368 8.7631 90.6927 16.3215 72.1869 20.3431C63.0223 22.325 54.857 23.4002 48.9883 23.98C45.9516 24.2774 42.9065 24.4919 39.8569 24.623H39.7354C37.934 24.6643 36.221 25.3767 34.9624 26.6078C33.7038 27.839 32.9995 29.4913 33 31.2116V81.2845C33 106.78 39.8624 132.19 55.6244 153.89C71.4195 175.638 95.8713 193.258 130.316 203.531C131.657 203.932 133.093 203.932 134.434 203.531C203.815 182.832 231.75 132.659 231.75 82.6022V31.2116C231.751 29.4913 231.046 27.839 229.788 26.6078C228.529 25.3767 226.816 24.6643 225.015 24.623H224.893L224.451 24.6072L222.641 24.5176C220.344 24.3856 218.05 24.2064 215.762 23.98C207.96 23.2058 200.214 21.9914 192.563 20.3431C174.052 16.3215 152.377 8.7631 137.151 -5.16771Z" fill="url(#paint1_radial_7153_19302)" fill-opacity="0.5"/>
<path d="M253.958 156.479C253.958 124.459 226.768 98.5 193.229 98.5C159.69 98.5 132.5 124.459 132.5 156.479C132.5 188.499 159.69 214.458 193.229 214.458C226.768 214.458 253.958 188.499 253.958 156.479Z" fill="#444444"/>
<path d="M253.958 156.479C253.958 124.459 226.768 98.5 193.229 98.5C159.69 98.5 132.5 124.459 132.5 156.479C132.5 188.499 159.69 214.458 193.229 214.458C226.768 214.458 253.958 188.499 253.958 156.479Z" fill="url(#paint2_linear_7153_19302)"/>
<path d="M230.257 131.669C231.292 132.658 231.874 133.998 231.874 135.396C231.874 136.793 231.292 138.134 230.257 139.122L186.091 181.289C185.055 182.277 183.651 182.832 182.187 182.832C180.724 182.832 179.32 182.277 178.284 181.289L156.201 160.206C155.195 159.211 154.639 157.88 154.651 156.498C154.664 155.116 155.245 153.794 156.268 152.817C157.292 151.839 158.676 151.285 160.124 151.273C161.572 151.261 162.966 151.792 164.007 152.753L182.187 170.109L222.451 131.669C223.486 130.681 224.89 130.126 226.354 130.126C227.818 130.126 229.222 130.681 230.257 131.669Z" fill="#D9D9D9"/>
<path d="M230.257 131.669C231.292 132.658 231.874 133.998 231.874 135.396C231.874 136.793 231.292 138.134 230.257 139.122L186.091 181.289C185.055 182.277 183.651 182.832 182.187 182.832C180.724 182.832 179.32 182.277 178.284 181.289L156.201 160.206C155.195 159.211 154.639 157.88 154.651 156.498C154.664 155.116 155.245 153.794 156.268 152.817C157.292 151.839 158.676 151.285 160.124 151.273C161.572 151.261 162.966 151.792 164.007 152.753L182.187 170.109L222.451 131.669C223.486 130.681 224.89 130.126 226.354 130.126C227.818 130.126 229.222 130.681 230.257 131.669Z" fill="url(#paint3_linear_7153_19302)"/>
</g>
<defs>
<radialGradient id="paint0_radial_7153_19302" cx="0" cy="0" r="1" gradientUnits="userSpaceOnUse" gradientTransform="translate(-44.9562 -125.511) rotate(53.2326) scale(509.926 456.857)">
<stop offset="0.338" stop-color="#E7906B"/>
<stop offset="0.529" stop-color="#E7906B"/>
<stop offset="0.682" stop-color="#E7906B" stop-opacity="0.17"/>
<stop offset="0.861" stop-color="#E7906B" stop-opacity="0.17"/>
</radialGradient>
<radialGradient id="paint1_radial_7153_19302" cx="0" cy="0" r="1" gradientUnits="userSpaceOnUse" gradientTransform="translate(196.257 170.889) rotate(90) scale(77.7448 83.7588)">
<stop offset="0.5" stop-color="#E7906B"/>
<stop offset="1" stop-color="#E7906B" stop-opacity="0.17"/>
</radialGradient>
<linearGradient id="paint2_linear_7153_19302" x1="136.839" y1="120.242" x2="216.634" y2="207.081" gradientUnits="userSpaceOnUse">
<stop stop-color="#52D17C"/>
<stop offset="1" stop-color="#22918B"/>
</linearGradient>
<linearGradient id="paint3_linear_7153_19302" x1="169.075" y1="135.501" x2="180.559" y2="194.957" gradientUnits="userSpaceOnUse">
<stop stop-color="white"/>
<stop offset="1" stop-color="#E3FFD9"/>
</linearGradient>
<clipPath id="clip0_7153_19302">
<rect width="265" height="253" fill="white"/>
</clipPath>
</defs>
</svg>
