<svg width="16" height="19" viewBox="0 0 16 19" fill="none" xmlns="http://www.w3.org/2000/svg">
<path d="M12.4046 6.77407C12.5119 6.66845 12.5722 6.5252 12.5722 6.37583C12.5722 6.22646 12.5119 6.0832 12.4046 5.97758C12.2973 5.87196 12.1517 5.81263 12 5.81263C11.8483 5.81263 11.7027 5.87196 11.5954 5.97758L7.42857 10.0804L5.54743 8.22755C5.4943 8.17525 5.43123 8.13376 5.36181 8.10546C5.29239 8.07716 5.21799 8.06259 5.14286 8.06259C5.06772 8.06259 4.99332 8.07716 4.9239 8.10546C4.85449 8.13376 4.79141 8.17525 4.73829 8.22755C4.68516 8.27985 4.64301 8.34193 4.61426 8.41026C4.58551 8.47859 4.57071 8.55183 4.57071 8.62579C4.57071 8.69975 4.58551 8.77299 4.61426 8.84132C4.64301 8.90965 4.68516 8.97174 4.73829 9.02403L7.024 11.274C7.07708 11.3264 7.14014 11.3679 7.20956 11.3963C7.27899 11.4247 7.35341 11.4392 7.42857 11.4392C7.50373 11.4392 7.57816 11.4247 7.64758 11.3963C7.717 11.3679 7.78006 11.3264 7.83314 11.274L12.4046 6.77407ZM8.31657 0.282929C8.22279 0.221496 8.11265 0.188721 8 0.188721C7.88735 0.188721 7.77721 0.221496 7.68343 0.282929C5.52587 1.71469 3.06642 2.64592 0.490286 3.00651C0.354172 3.02573 0.229664 3.09262 0.139606 3.19491C0.0495486 3.29719 -1.83303e-05 3.42802 5.08501e-09 3.56337V8.62579C5.08501e-09 13.0031 2.63657 16.1969 7.79429 18.151C7.92667 18.2013 8.07333 18.2013 8.20572 18.151C13.3634 16.1969 16 13.002 16 8.62579V3.56337C16 3.42785 15.9503 3.29689 15.86 3.19458C15.7697 3.09227 15.6449 3.02548 15.5086 3.00651C12.9328 2.64576 10.4738 1.71453 8.31657 0.282929ZM1.14286 4.04487C3.40666 3.6666 5.57784 2.87201 7.54286 1.70265L8 1.42253L8.45714 1.70265C10.4222 2.87201 12.5933 3.6666 14.8571 4.04487V8.62579C14.8571 12.4417 12.608 15.2216 8 17.0215C3.392 15.2216 1.14286 12.4429 1.14286 8.62579V4.04487Z" fill="black"/>
</svg>
